<?xml version="1.0" encoding="utf-8"?>
<!-- Generator: Adobe Illustrator 25.2.3, SVG Export Plug-In . SVG Version: 6.00 Build 0)  -->
<svg version="1.1" id="Calque_1" xmlns="http://www.w3.org/2000/svg" xmlns:xlink="http://www.w3.org/1999/xlink" x="0px" y="0px"
	 viewBox="0 0 40 40" style="enable-background:new 0 0 40 40;" xml:space="preserve">
<style type="text/css">
	.st0{fill:#000333;}
</style>
<g>
	<path class="st0" d="M29.7,15.7l1-1l-1.4-1.4l-0.9,0.9c-2-1.8-4.5-2.9-7.4-3.2V9.2l2.8-1.8C24,7.3,24,7.1,24,6.9
		c-0.1-0.2-0.3-0.4-0.5-0.4h-7c-0.2,0-0.4,0.1-0.5,0.4c-0.1,0.2,0,0.4,0.2,0.6L19,9.2v1.8c-6.4,0.5-11.5,5.9-11.5,12.4
		C7.5,30.4,13.1,36,20,36s12.5-5.6,12.5-12.5C32.5,20.5,31.5,17.8,29.7,15.7z M20,34c-5.8,0-10.5-4.7-10.5-10.5S14.2,13,20,13
		s10.5,4.7,10.5,10.5S25.8,34,20,34z"/>
	<rect x="19" y="20.5" transform="matrix(0.7071 -0.7071 0.7071 0.7071 -8.6127 22.2071)" class="st0" width="7.1" height="2"/>
</g>
</svg>
