<?xml version="1.0" encoding="utf-8"?>
<svg width="140px" height="140px" viewbox="0 0 140 140" version="1.1" xmlns:xlink="http://www.w3.org/1999/xlink" xmlns="http://www.w3.org/2000/svg">
  <defs>
    <path d="M0 0L108.334 0L108.334 67.5867L0 67.5867L0 0Z" transform="translate(0.00016248494 0.15874709)" id="path_1" />
    <clipPath id="mask_1">
      <use xlink:href="#path_1" />
    </clipPath>
  </defs>
  <g id="PICTO-1">
    <g id="Group-6" transform="translate(16 24)">
      <g id="Group-3" transform="translate(0 23.852255)">
        <path d="M0 0L108.334 0L108.334 67.5867L0 67.5867L0 0Z" transform="translate(0.00016248494 0.15874709)" id="Clip-2" fill="none" fill-rule="evenodd" stroke="none" />
        <g clip-path="url(#mask_1)">
          <path d="M49.5337 59.8739C50.6737 58.1142 51.5728 56.7284 52.5773 55.1786C56.0557 57.2101 59.4254 59.1789 62.7943 61.146C59.2473 63.86 52.1474 60.497 49.5337 59.8739M44.8242 64.8461C46.0862 63.4042 47.0999 62.2467 48.0341 61.1787C51.1145 62.1145 54.0158 62.9944 56.9171 63.8751C53.7917 66.1768 49.2276 65.9652 44.8242 64.8461M40.7118 64.2339C38.8718 64.1904 37.1246 61.8427 36.9055 60.4569C36.9933 60.2745 37.0443 60.0036 37.1923 59.8881C39.5149 58.0724 41.8367 56.2533 44.1668 54.4509C45.1721 53.6731 46.2753 52.9706 47.2421 52.1543C47.8928 51.6031 50.0364 49.8903 50.9756 50.2206C51.3553 50.3544 51.5377 50.8228 51.3461 51.8381C50.8109 54.6592 48.8395 56.8647 47.1969 58.9765C45.7065 60.8926 43.1631 64.2899 40.7118 64.2339M34.4834 57.5539C32.916 57.5865 31.3545 55.5474 31.9383 53.9232C32.7872 51.5613 34.296 49.5323 36.1603 48.0988C37.2091 47.2933 38.2604 46.411 39.3267 45.5228C41.1032 44.0441 42.8955 42.5637 44.8409 41.3694C46.1983 40.5355 48.2148 38.9732 49.844 39.1597C52.3966 39.4533 50.1551 42.7519 49.3338 43.9312C46.2117 48.4091 42.806 52.5934 38.5999 55.8686C37.3538 56.8379 36.0541 57.5212 34.4834 57.5539M25.4088 47.5158C25.781 47.0692 26.144 46.5557 26.5764 46.1275C29.0311 43.6978 31.4365 41.1946 33.9941 38.9055C36.2121 36.9199 38.7547 35.1652 41.641 34.6551C42.9817 35.8176 41.4921 38.085 40.6716 39.2576C38.1926 42.8029 35.4159 46.319 32.1282 49.0413C29.333 51.3564 27.4797 50.9767 25.4088 47.5158M21.5925 44.213C19.7174 42.128 23.8557 38.4705 25.0676 37.354C27.2563 35.3375 29.7947 33.8555 32.4953 32.8979C33.7766 32.4437 34.3546 33.454 34.0209 34.3021C33.5793 35.4279 32.3322 37.0579 31.9157 37.4811C30.1711 39.2525 28.3654 40.9821 26.5873 42.7126C25.6882 43.5891 22.8621 45.6256 21.5925 44.213M108.313 29.6001C107.649 27.8169 98.2293 32.6185 97.3988 33.1011C94.4724 34.8006 91.4749 36.5988 88.7918 38.6269C86.5871 40.2938 87.3783 41.2038 85.617 43.6435C83.9994 45.8824 81.7454 47.4941 79.0507 48.4643C76.3885 45.7921 73.713 43.1458 71.0785 40.4494C67.7121 37.0061 64.3817 33.5201 61.0329 30.0567C60.7602 29.7749 60.4959 29.3651 60.1731 29.2797C57.1563 28.4885 54.2709 27.1244 51.0007 27.6455C47.8802 28.144 43.3513 29.0414 40.2242 28.2602C38.0153 27.7082 33.5977 26.1492 33.4655 23.1584C33.4513 22.9025 47.2421 20.7237 48.1621 20.5121C51.7258 19.69 55.1215 18.443 58.7429 19.4491C64.0338 20.9203 69.3455 20.1458 74.5067 18.6571C78.3255 17.5556 81.9871 15.7808 85.7349 14.3615C87.5021 13.6924 89.358 13.2893 91.0885 12.524C94.7659 10.8973 92.4317 11.8499 96.0841 10.1513C98.2912 9.12506 100.523 8.16742 102.736 7.15375C103.529 6.7916 104.366 6.25549 103.99 5.13978C103.567 3.87771 102.7 4.43557 101.926 4.81527C99.054 6.22204 96.2162 7.73335 93.2864 8.96949C86.5085 11.829 85.6671 11.9043 78.8148 14.5296C75.7136 15.7189 72.4852 16.5787 69.2585 17.2478C66.7018 17.7781 64.0764 18.0181 61.4452 17.426C59.2782 16.9392 56.7156 16.9936 54.6397 16.1915C52.9628 15.5441 51.6924 14.0671 49.7746 13.6573C46.2293 12.9004 42.5601 14.2796 39.1193 14.7747C36.233 15.1895 33.6094 14.7496 31.0099 13.24C27.1777 11.0152 23.3321 8.81978 19.5041 6.58586C18.656 6.09157 6.68431 -1.65065 6.28285 0.320657C5.8814 2.29615 8.79111 2.99535 9.91016 3.7188C11.8497 4.97084 16.4238 7.76262 18.3909 8.95778C20.2267 10.0735 22.1545 11.001 24.0363 12.0247C26.793 13.5235 29.512 15.1143 32.3071 16.5152C34.3964 17.5615 36.6403 17.8358 38.9069 17.3055C40.9476 16.8263 42.9967 16.3588 45.0006 15.7265C47.253 15.0164 49.2243 15.7574 51.2608 17.1859C49.7813 17.6652 48.3151 18.213 46.8164 18.6094C44.6494 19.1823 42.4012 19.5169 40.2242 20.0438C37.7385 20.6435 29.3623 20.3424 31.6539 25.1021C34.1555 30.2968 42.6956 30.6246 47.595 30.3143C49.9561 30.1646 52.6935 29.7197 55.0437 30.086C57.2676 30.4323 59.5684 30.9968 61.2587 32.7791C64.6669 36.3746 68.0617 39.9877 71.4339 43.6259C73.314 45.6549 74.9625 47.6103 76.9974 49.411C78.7947 51.0026 80.0192 53.117 78.5279 55.3091C76.9606 56.311 74.694 55.2957 73.0305 54.4058C68.1127 51.7754 63.0653 49.3801 58.8483 45.3588C58.2854 44.8219 56.2606 43.2554 56.3442 45.2417C56.4103 46.7991 58.0513 47.6087 59.0331 48.3488C60.3337 49.3265 61.6351 50.3026 62.9565 51.2443C65.9423 53.3737 69.0461 55.0623 72.2678 56.7593C73.2053 57.2536 72.9661 57.972 72.1883 58.4429C71.2499 59.0133 70.2078 59.0593 69.1389 59.1028C65.295 59.26 61.7957 57.7939 58.2888 56.2993C56.5299 55.5499 54.8446 54.7161 53.7457 53.628C53.6787 52.4111 53.7758 51.0511 53.5391 49.8677C53.1443 47.8939 51.7099 47.3753 50.1476 47.0976C50.7046 46.1183 51.0634 45.4048 51.4783 44.7207C52.9687 42.2601 53.4864 37.0236 49.5312 37.2528C48.4272 37.3172 47.4177 37.3891 46.4668 37.9988C45.4682 38.6395 44.3909 39.1288 42.9557 39.8957C43.4626 38.2012 43.9025 37.0579 44.1417 35.8644C44.5607 33.7735 43.6934 32.3333 41.7831 32.3166C40.1982 32.3024 38.6091 32.7916 36.9456 33.0701C35.8249 31.1892 35.4435 30.9692 33.2665 31.0729C33.1176 31.0804 32.9704 31.1281 32.8223 31.1473C30.2355 31.4928 28.0099 32.8243 25.8956 34.4033C24.7255 35.2781 23.6391 36.2943 22.4372 37.3122C20.4366 35.7139 18.5674 34.0445 16.5501 32.6403C13.4756 30.5 14.3889 31.0737 11.3035 28.9536C8.99685 27.3687 3.11722 21.7533 0.349688 21.8545C0.257688 21.8579 0.156488 21.8654 0.0862339 21.934C-0.00242067 22.0209 -0.00660248 22.1707 0.00427024 22.302C0.145616 23.9371 4.77907 27.1512 5.86634 27.8847C7.19031 28.7779 8.51343 29.6737 9.83405 30.5711C12.4761 32.3676 11.1162 31.4727 13.7399 33.3018C16.1269 34.9704 18.3047 37.0094 20.5939 38.8929C19.9373 40.8291 18.8275 43.0998 19.8997 45.1364C20.5613 46.3926 21.9019 46.9471 23.1381 47.4104C23.6299 47.5944 24.3701 50.2022 24.8426 50.827C25.786 52.0757 27.3709 52.8928 28.7944 53.1036C29.1474 53.1563 29.4752 53.4205 29.6132 53.4883C30.0975 55.3433 30.1351 57.2017 31.6263 58.4187C32.6877 59.2843 33.9071 59.9065 35.1884 60.2361C34.8438 60.1466 35.8224 62.9844 35.9428 63.1742C36.5216 64.0934 37.148 65.01 37.9969 65.6122C39.7474 66.8559 41.7798 66.2596 43.716 66.3098C45.6965 66.3616 47.4637 67.3945 49.4844 67.5166C51.2851 67.6253 53.3049 67.6981 55.0914 67.0156C55.9511 66.687 56.8327 66.1726 57.5202 65.4976C58.1491 64.8796 58.2963 64.5057 59.0758 64.2732C59.9515 64.0114 60.9233 64.1879 61.8241 63.8868C62.9799 63.4987 63.782 62.3328 64.8977 61.9297C66.4851 61.356 68.6823 61.5826 70.35 61.4346C71.3536 61.3459 72.3865 61.2472 73.2831 60.7362C74.5268 60.0295 74.592 58.463 76.0891 58.192C77.357 57.9628 78.8683 58.0456 79.7959 56.9425C81.0646 55.4312 80.807 53.3846 81.0136 51.5111C81.2302 49.5482 82.2732 50.1069 83.6206 49.3725C86.557 47.7751 87.4235 45.4584 89.0268 42.5905C90.6092 39.7585 93.4119 37.6944 96.3099 35.9824C97.3721 35.3543 108.88 31.1206 108.313 29.6001" transform="translate(0.00016248494 0.15874709)" id="Fill-1" fill="#1D1D1B" fill-rule="evenodd" stroke="none" />
        </g>
      </g>
      <path d="M23.2141 29.1663C23.2166 29.2357 23.2166 29.3035 23.22 29.3729L23.2141 29.3838L23.2074 29.3729C23.2108 29.3035 23.2108 29.2357 23.2141 29.1663M12.6375 25.7138C15.584 27.9536 19.1352 29.4984 23.2049 29.3988C23.2074 29.3988 23.2108 29.3988 23.2141 29.3988C23.2166 29.3988 23.2191 29.3988 23.2225 29.3988C27.2922 29.4984 30.8434 27.9536 33.7908 25.7138C37.3763 22.9881 40.0334 19.5716 42.3468 15.0151C44.63 10.5163 45.4497 5.37011 46.4274 0.137822C40.2441 -0.644178 34.1529 1.93015 29.8691 7.134C26.0009 11.8335 23.5478 18.0594 23.2141 25.5348C22.8796 18.0594 20.4265 11.8335 16.5583 7.134C12.2745 1.93015 6.18324 -0.644178 0 0.137822C0.977709 5.37011 1.79735 10.5163 4.08062 15.0151C6.394 19.5716 9.05113 22.9881 12.6375 25.7138" transform="translate(30.512218 1.1074288E-05)" id="Fill-4" fill="#BE1736" fill-rule="evenodd" stroke="none" />
    </g>
  </g>
</svg>