<?xml version="1.0" encoding="utf-8"?>
<svg width="140px" height="140px" viewbox="0 0 140 140" version="1.1" xmlns:xlink="http://www.w3.org/1999/xlink" xmlns="http://www.w3.org/2000/svg">
  <defs>
    <path d="M0 0L109 0L109 92L0 92L0 0Z" id="path_1" />
    <clipPath id="mask_1">
      <use xlink:href="#path_1" />
    </clipPath>
  </defs>
  <g id="PICTO-1">
    <g id="Group-19" transform="translate(17 25)">
      <path d="M0 0L109 0L109 92L0 92L0 0Z" id="Mask" fill="#D8D8D8" fill-opacity="0" fill-rule="evenodd" stroke="none" />
      <g clip-path="url(#mask_1)">
        <g id="Group-19" transform="translate(2 1)">
          <g id="Group-8">
            <path d="M41.9937 15.5041C41.8062 15.1883 41.6507 14.9316 41.5002 14.6708C41.218 14.1771 41.0864 14.1508 40.6225 14.4699C40.0787 14.843 39.6288 15.322 39.0678 15.6919C37.8027 16.5284 36.6478 17.538 35.4509 18.4787C35.3209 18.5821 35.205 18.7026 35.0067 18.8822C37.3914 17.7291 39.6732 16.626 41.9937 15.5041M66.9895 15.8985C67.0034 15.6058 67.0339 15.3458 67.0298 15.0858C67.0018 13.4086 67.0479 11.7265 66.9154 10.0591C66.7698 8.23266 66.0427 6.64568 64.5752 5.48681C63.9418 4.98571 63.3323 4.45179 62.6849 3.96873C62.0754 3.51437 61.4305 3.1084 60.7856 2.67208C61.2808 3.67184 61.7653 4.62402 62.2259 5.58687C63.723 8.70424 65.2111 11.8273 66.2097 15.1621C66.2434 15.2728 66.338 15.3753 66.4252 15.4557C66.5732 15.5918 66.7394 15.705 66.9895 15.8985M41.5026 13.7219C41.7626 14.1 42.0348 14.4657 42.2734 14.8537C42.4363 15.1219 42.5786 15.1604 42.8574 14.9947C44.3817 14.0926 45.8541 13.1142 47.1875 11.9315C48.2601 10.9785 49.4414 10.1198 50.3651 9.03394C51.8203 7.32148 53.1043 5.45729 54.4542 3.65051C54.6582 3.3774 54.8145 3.06821 54.9946 2.77706C50.4021 6.34469 45.5267 9.51372 41.5026 13.7219M33.9859 17.9341C33.9637 17.7619 33.9234 17.57 33.9209 17.3773C33.911 16.5202 33.9382 15.6615 33.9053 14.8061C33.8592 13.6021 34.0328 12.4392 34.4005 11.2967C34.899 9.74336 35.7873 8.44835 36.8616 7.25997C38.872 5.03409 41.0206 2.9903 43.6455 1.52552L43.7565 1.38692C43.601 1.40906 43.4999 1.4189 43.3979 1.4394C42.2314 1.6633 41.0716 1.94461 39.897 2.10044C38.1901 2.32598 36.8657 3.14776 35.8178 4.51084C34.8809 5.72876 34.2491 7.11726 33.6486 8.52135C32.8178 10.4692 32.4691 12.5663 31.8793 14.5888L31.876 14.574C32.8688 15.486 32.9387 16.7015 33.1773 17.7964C33.4627 17.8447 33.7103 17.8874 33.9859 17.9341M34.5839 18.0137L34.6703 18.0235C34.7262 17.9104 34.7871 17.7988 34.8364 17.6824C35.4616 16.2028 35.9963 14.6757 36.7234 13.2528C38.3604 10.0542 40.4448 7.18615 43.1519 4.83398C43.8486 4.22707 44.5626 3.62673 45.3285 3.1207C46.9843 2.02827 48.8343 1.38938 50.7312 0.884987C51.1976 0.760325 51.6615 0.628282 52.1287 0.50034C51.5291 0.442109 50.9401 0.424886 50.3552 0.450311C49.2703 0.49952 48.1746 0.494599 47.1052 0.653707C45.2281 0.935016 43.6405 1.94543 42.127 3.03376C40.2285 4.40094 38.5455 6.02319 37.0048 7.80372C35.7133 9.29638 34.8216 10.967 34.4868 12.9411C34.2697 14.2213 34.3857 15.4975 34.4778 16.7728C34.509 17.1878 34.5477 17.6003 34.5839 18.0137M35.1449 18.1162C35.8054 17.593 36.4199 17.1115 37.0303 16.6235C38.5981 15.3679 40.2605 14.2164 41.7042 12.8263C43.8774 10.7341 46.2111 8.85679 48.5686 7.00326C50.5872 5.41546 52.6494 3.88507 54.7174 2.36535C55.2233 1.99464 55.8114 1.71333 56.3979 1.48943C56.954 1.27784 57.5569 1.19418 58.1698 1.04656C58.0439 0.988325 57.9189 0.897289 57.7799 0.869404C57.3505 0.781649 56.9186 0.690613 56.4835 0.648786C54.5372 0.451951 52.6511 0.757045 50.778 1.29834C48.4707 1.96348 46.2111 2.74917 44.3471 4.32959C42.5251 5.87392 40.8758 7.59294 39.447 9.55555C37.5542 12.1554 36.3237 15.071 35.1449 18.1162M69.2771 55.3155C68.4191 54.369 67.599 53.5071 66.8258 52.6033C65.703 51.2927 64.5999 49.9649 63.5149 48.6215C62.9383 47.9104 62.4283 47.1411 61.8681 46.4177C61.1582 45.5057 60.4944 44.5716 59.9877 43.5169C59.4694 42.4359 59.3164 41.3369 59.5476 40.1691C59.606 39.882 59.6619 39.5958 59.7384 39.2038C59.5813 39.3186 59.5015 39.3563 59.4497 39.4194C58.9553 40.01 58.4881 40.6275 57.9666 41.1942C56.5781 42.7066 55.1994 44.2288 53.7484 45.6763C53.2927 46.1299 53.2211 46.5588 53.3034 47.1091C53.3206 47.2264 53.3429 47.3437 53.3725 47.4593C53.6308 48.5091 53.8932 49.5589 54.1523 50.6095C54.71 52.878 56.0985 54.4592 58.113 55.4713C59.9778 56.4087 61.9643 56.5039 63.9887 56.1939C65.4932 55.9642 66.9993 55.7411 68.5038 55.5058C68.7416 55.4697 68.9735 55.3918 69.2771 55.3155M39.5474 39.7155C39.572 40.0756 39.6173 40.3216 39.5967 40.5619C39.5523 41.0704 39.549 41.5994 39.3952 42.0751C38.979 43.3742 38.1934 44.4642 37.3445 45.5008C36.7382 46.2398 36.0892 46.9426 35.4937 47.6914C34.3157 49.1628 33.1913 50.68 31.9887 52.1325C30.1658 54.3288 28.2977 56.4866 26.4478 58.6625L26.317 58.861C27.0968 58.6034 27.833 58.2877 28.5676 57.967C30.6594 57.055 32.766 56.1824 35.0116 55.7231C36.911 55.3335 38.8186 55.1752 40.7565 55.3368C42.1739 55.4541 43.5961 55.5008 45.0151 55.5787C45.5382 55.6074 46.0079 55.4623 46.4373 55.1531C47.2582 54.5626 47.6136 53.7064 47.7682 52.7369C48.0907 50.7136 48.2355 48.6772 48.2042 46.6252C48.2009 46.3693 48.1104 46.2332 47.8875 46.1077C46.5615 45.363 45.2256 44.6372 43.9399 43.8285C42.5037 42.9239 41.1818 41.8635 40.1799 40.4405C40.0171 40.2109 39.8098 40.0132 39.5474 39.7155M35.0536 56.3694L35.1285 56.5112L35.3612 56.7228C36.8221 57.8587 38.2584 59.0315 39.8887 59.9173C41.6129 60.8539 43.3271 61.8291 45.2034 62.4089C48.771 63.5112 52.41 63.6129 56.073 63.033C58.0538 62.7206 59.9202 62.0267 61.7373 61.1713C63.7024 60.2486 65.5368 59.1308 67.1071 57.5988C67.5011 57.2133 67.8458 56.7737 68.2135 56.3587L68.1526 56.2677C67.1194 56.4087 66.0822 56.5301 65.0515 56.6966C63.1143 57.0124 61.187 57.2625 59.2506 56.6556C56.5608 55.81 54.5948 54.1845 53.7089 51.3771C53.2269 49.8459 52.934 48.2688 52.7152 46.6318C52.5844 46.7327 52.4685 46.8098 52.3665 46.9041C51.7273 47.4864 51.0569 47.6791 50.2475 47.2231C49.7729 46.9566 49.2382 46.8007 48.6977 46.5809C48.701 47.5832 48.7134 48.5321 48.7051 49.481C48.6936 51.063 48.4847 52.6197 48.0051 54.1255C47.6284 55.3056 46.4422 56.2463 45.2988 56.2324C43.8503 56.2127 42.4009 56.1602 40.9597 56.0405C38.9847 55.8756 37.0352 55.9716 35.0536 56.3694M82.4145 69.1792L82.3026 69.3243C81.3353 71.2935 80.6328 73.3595 80.1105 75.4951C80.043 75.7699 80.1187 75.8765 80.3515 75.9659C81.8996 76.558 83.4312 77.2018 84.9966 77.7431C87.7621 78.7011 90.6411 79.1849 93.5185 79.6081C95.3578 79.878 97.2226 79.9641 99.0775 80.1109C99.8828 80.1757 100.178 80.0026 100.277 79.1989C100.37 78.4263 100.38 77.6086 100.241 76.8442C99.4362 72.3736 97.5278 68.5091 94.0359 65.5861C92.1358 63.9951 90.2002 62.445 88.2482 60.9195C85.0533 58.4222 81.8321 55.9576 78.6166 53.4841C76.8382 52.1169 75.0088 50.817 73.2789 49.3883C70.8243 47.3634 68.4421 45.2482 66.0262 43.1708C65.9481 43.1035 65.8634 43.0166 65.7712 43.0002C65.3969 42.9313 65.42 42.7304 65.5623 42.4556C66.4959 40.6447 67.4641 38.8503 68.3451 37.0123C69.4737 34.6536 70.2576 32.2161 70.0577 29.5055C69.8529 26.7187 69.5609 23.9556 68.9225 21.2328C68.5664 19.7048 68.2842 18.1589 67.9667 16.6203C67.8918 16.2569 67.8178 15.8944 67.7314 15.4704C67.2231 15.9551 66.9483 16.4636 66.9895 17.0951C67.0306 17.7676 67.089 18.441 67.1935 19.1053C67.5496 21.3468 67.9593 23.5816 68.2859 25.8288C68.4775 27.146 68.5499 28.4828 68.6749 29.8106C68.7103 30.1928 68.5672 30.4709 68.1715 30.6718C68.1394 30.5217 68.0934 30.4028 68.0934 30.2839C68.0794 27.9218 67.6969 25.6017 67.3333 23.279C67.0067 21.1934 66.7312 19.0987 66.44 17.0074C66.3956 16.6916 66.3873 16.3693 66.3643 16.0503L66.2162 16.015C66.0813 16.3168 65.9226 16.6104 65.8165 16.9229C65.4669 17.9571 65.4767 19.0257 65.5746 20.0985C65.8107 22.7041 66.0632 25.3081 66.2837 27.9161C66.3421 28.5845 66.3215 29.2603 66.3051 29.9328C66.3018 30.0386 66.1299 30.1387 66.0369 30.242C65.9464 30.1485 65.8461 30.0616 65.7712 29.9558L65.7614 29.7606C65.7145 28.6149 65.6906 27.4675 65.6158 26.3209C65.4562 23.9483 65.2711 21.5772 65.0951 19.207C65.0811 19.0192 65.0539 18.8322 65.0325 18.6444C64.8713 18.7256 64.7734 18.8183 64.7455 18.9298C64.6295 19.3743 64.4674 19.8229 64.4477 20.2748C64.3918 21.5411 64.3835 22.8115 64.3827 24.0787C64.3827 26.0281 64.2774 27.976 63.862 29.8738C63.2673 32.5991 62.1231 35.1252 60.895 37.602C60.4245 38.5509 60.1259 39.531 59.9613 40.5635C59.8544 41.2336 59.8503 41.9233 60.1448 42.5499C60.5034 43.3077 60.8547 44.0885 61.3342 44.766C62.1897 45.9724 63.1357 47.1124 64.0496 48.2745C64.8442 49.2841 65.6116 50.3192 66.4548 51.2853C67.8359 52.8739 69.2631 54.4223 70.6829 55.9757C72.1923 57.6291 73.7223 59.2604 75.226 60.9179C78.3518 64.3625 81.6709 67.6053 85.0443 70.7924C86.0988 71.7889 87.1649 72.7706 88.2104 73.7777C88.3157 73.8802 88.3001 74.1115 88.342 74.2829C88.1874 74.2428 87.9908 74.2485 87.8814 74.1525C86.9601 73.3414 86.0528 72.5147 85.1446 71.6872C84.2373 70.8613 83.3366 70.028 82.4145 69.1792M30.3945 15.2252C30.3443 15.4196 30.2892 15.5803 30.267 15.746C30.1913 16.2955 30.1469 16.8499 30.0605 17.3969C29.799 19.0397 29.5036 20.6759 29.2626 22.3203C28.8341 25.2351 29.0208 28.1064 29.7907 30.9588C30.4735 33.4988 31.324 35.9765 32.2182 38.4427C32.5768 39.4326 32.9404 40.4217 33.3015 41.4116C33.4578 41.8413 33.4068 41.9356 32.9906 42.0751C32.8853 42.1095 32.7923 42.1965 32.7076 42.276C31.4342 43.4734 30.1716 44.688 28.8834 45.8756C26.8113 47.7866 24.745 49.7082 22.6318 51.574C19.9222 53.9696 17.1353 56.2759 14.443 58.6928C11.4735 61.3567 7.96026 64.5708 5.73436 67.388C4.71271 68.5124 4.06945 69.5277 3.26003 70.8359C2.21124 72.5319 1.61652 74.4174 1.01439 76.3038C0.710034 77.2576 0.62284 78.2508 0.67384 79.2415C0.705921 79.8632 0.904163 80.475 1.03084 81.0918C1.07361 81.3026 1.20687 81.3395 1.40758 81.3165C2.42265 81.1984 3.441 81.1123 4.45278 80.9802C6.72145 80.685 8.90047 80.0108 11.0614 79.2817C13.4312 78.4796 15.746 77.5438 17.9982 76.4358C19.826 75.5394 21.6949 74.7316 23.5482 73.8909C23.7982 73.7777 23.9142 73.6457 23.8945 73.3332C23.818 72.24 23.8155 71.1385 23.7209 70.0477C23.5663 68.2852 23.3779 66.526 23.1681 64.7709C23.0933 64.1534 22.9123 63.5505 22.7807 62.9412L22.6524 62.9149C22.5742 63.0174 22.5027 63.1265 22.4171 63.2241C19.3423 66.6925 16.2667 70.1634 13.1869 73.6276C13.0084 73.8294 12.8077 74.1927 12.5034 73.8999C12.2262 73.6301 12.5511 73.4021 12.7222 73.2094C16.4954 68.9422 20.2726 64.6774 24.0458 60.4086C24.2054 60.2273 24.291 59.9772 24.4538 59.8008C24.8709 59.353 25.3471 58.961 25.737 58.4927C28.2722 55.4549 30.958 52.5541 33.3418 49.3801C34.4482 47.9038 35.7413 46.5736 36.8904 45.1276C37.5403 44.3124 38.1276 43.4308 38.6335 42.5147C39.2866 41.3271 39.1204 40.0575 38.7067 38.824C38.2386 37.424 37.7443 36.0331 37.2556 34.6396C36.447 32.3416 35.5216 30.0862 35.191 27.6348C34.9376 25.7501 34.5732 23.8826 34.268 22.0062C34.1019 20.9777 33.9744 19.9427 33.795 18.9175C33.763 18.7321 33.5672 18.5755 33.4454 18.4049C33.3731 18.6001 33.2489 18.7895 33.2324 18.9897C33.1781 19.7007 33.1962 20.4175 33.1222 21.127C32.8696 23.5611 32.8483 25.9806 33.4348 28.377C33.5228 28.7346 33.5812 29.1029 33.6256 29.4686C33.6437 29.6105 33.5878 29.7606 33.5655 29.9058C33.4208 29.8467 33.3657 29.8024 33.35 29.7458C32.9083 28.2237 32.4477 26.6949 32.4608 25.0932C32.4797 23.2323 32.5916 21.3705 32.6607 19.5096C32.7101 18.1621 32.5464 16.845 32.038 15.5902C31.9837 15.4524 31.8431 15.3515 31.7419 15.2334C31.6596 15.3851 31.5659 15.5328 31.5025 15.6927C31.4704 15.7722 31.4968 15.8764 31.4959 15.9683C31.491 16.6162 31.5321 17.2682 31.4721 17.9104C31.3257 19.4481 31.0888 20.9777 30.9678 22.5187C30.8379 24.1508 30.8066 25.7895 31.1233 27.4166C31.25 28.0629 31.2993 28.7264 31.3536 29.3842C31.3643 29.508 31.2352 29.6442 31.1694 29.7737C31.0896 29.6745 30.953 29.5843 30.9349 29.4744C30.7499 28.3532 30.4628 27.2321 30.4397 26.1077C30.4035 24.2747 30.4792 22.4343 30.6298 20.6062C30.7523 19.1225 31.092 17.6586 31.009 16.152C30.9843 15.7214 30.856 15.4138 30.3945 15.2252M68.2702 71.7979C68.6248 71.4977 69.5962 72.4286 70.0412 72.7288C72.421 74.3494 74.98 75.6829 77.5136 77.0321C78.0277 77.4471 78.513 77.6701 79.0584 78.1204C79.5412 74.8267 80.4107 71.7249 82.0715 68.7486C81.9572 68.6674 81.7967 68.5797 81.6651 68.4591C79.2064 66.1996 77.0118 63.6801 74.7711 61.2066C73.2419 59.5179 71.6765 57.8628 70.1416 56.1807C69.8989 55.9158 69.6439 55.8863 69.3396 55.965L69.1529 56.079C68.3648 57.4495 67.2313 58.4878 66.0172 59.44C64.4551 60.6636 62.7055 61.5601 60.904 62.3285C58.8073 63.2258 56.6159 63.7671 54.3349 63.9557C51.5644 64.1837 48.8343 63.9828 46.1247 63.3775C44.3989 62.9896 42.8311 62.1989 41.2871 61.3665C40.0195 60.6833 38.7717 59.9501 37.5633 59.1619C36.7827 58.6518 36.0892 58.0014 35.3571 57.4142C35.2041 57.292 35.0462 57.1764 34.8981 57.0493C34.4597 56.6712 34.032 56.654 33.4479 56.8008C30.7531 57.4757 28.3389 58.879 25.7346 59.7844C25.4796 59.8722 25.2336 60.0625 25.0453 60.2659C24.3864 60.9745 23.7555 61.7101 23.1426 62.4048C23.7094 63.9262 23.9965 65.4697 24.124 67.0378C24.286 69.0258 24.43 71.0171 24.4925 73.0093C24.5361 74.3674 24.4267 75.7297 24.3847 77.0903C24.3823 77.1543 24.3765 77.2182 24.3666 77.3552C24.94 77.1042 25.4631 76.868 25.9937 76.6433C28.9402 75.3934 31.8916 74.146 34.8405 72.8977C34.9475 72.8518 35.0602 72.7911 35.1712 72.7903C35.3004 72.7886 35.4665 72.8075 35.5471 72.8887C35.6047 72.9453 35.5521 73.1233 35.5365 73.2446L35.4674 73.4292C34.9615 75.8183 33.7852 77.94 32.8754 80.165C32.3416 81.4748 31.7847 82.7788 31.5807 84.1821C31.1916 86.8746 31.5247 89.4638 32.9741 91.8111C33.4956 92.6566 34.069 93.4833 34.6958 94.2502C36.35 96.2735 37.4021 98.592 37.9869 101.135C38.4303 103.062 38.8811 104.995 39.1821 106.949C39.4454 108.655 39.5079 110.392 39.6469 112.118C39.6683 112.384 39.7028 112.762 39.3343 112.776C38.9131 112.793 38.9929 112.392 38.9781 112.117C38.7988 108.772 38.4122 105.459 37.5616 102.211C37.1857 100.779 36.8106 99.3547 36.2167 97.9958C35.6088 96.6064 34.769 95.3746 33.8164 94.2182C32.9585 93.1791 32.2938 92.0227 31.7205 90.7998C30.9201 89.0915 30.7729 87.2683 30.8198 85.4205C30.8642 83.544 31.5535 81.8389 32.2675 80.1494C32.9856 78.4526 33.7202 76.7606 34.426 75.058C34.6193 74.5921 34.7386 74.0935 34.9179 73.5169C34.6777 73.5965 34.5313 73.6334 34.3947 73.6908C32.4197 74.5126 30.4439 75.3311 28.4746 76.166C27.2901 76.6663 26.1237 77.2043 24.9424 77.7062C24.5994 77.8522 24.2293 77.9391 23.8681 78.0376C23.4996 78.1376 23.2315 77.9843 23.0892 77.6341C22.8391 77.0239 22.6047 76.4088 22.3669 75.7953C22.3061 75.637 22.2592 75.473 22.1958 75.286C22.1062 75.3098 22.0321 75.3204 21.968 75.3508C19.7355 76.3587 17.5277 77.4331 15.2615 78.3582C13.321 79.1505 11.3328 79.8394 9.32903 80.4496C7.78587 80.9187 6.195 81.2443 4.60742 81.5379C3.64582 81.7134 2.65297 81.7151 1.67163 81.7717C1.39195 81.7873 1.09665 81.7577 0.830953 81.6765C0.67055 81.6273 0.46984 81.46 0.428711 81.305C0.256792 80.6743 0.0618401 80.0338 0.0198885 79.3867C-0.0730632 77.9473 0.163017 76.5474 0.660679 75.1876C1.21263 73.6769 1.73826 72.1604 2.56249 70.7694C3.45416 69.2587 4.54984 67.7505 5.73189 66.4899C7.78752 64.2944 9.52481 62.1875 12.0164 60.1789C14.5582 58.1278 16.8351 55.7731 19.2995 53.6342C21.7434 51.5117 24.1692 49.3645 26.5761 47.1985C28.3035 45.6435 29.9857 44.036 31.6942 42.4589C31.9615 42.2112 32.2757 42.0168 32.5423 41.7683C32.6245 41.6904 32.6821 41.4928 32.6459 41.3878C31.7978 38.92 30.8798 36.4768 30.0926 33.9876C29.3794 31.7396 28.6959 29.4547 28.5495 27.0869C28.4491 25.4893 28.5766 23.8613 28.751 22.2637C28.927 20.6669 29.2955 19.0922 29.5678 17.506C29.6764 16.8688 29.7496 16.2258 29.8434 15.5852C29.8639 15.4565 29.8985 15.3261 29.9462 15.2055C30.1387 14.7225 30.4027 14.6527 30.8173 14.9669C30.8987 15.0316 30.9794 15.0956 31.0986 15.1891C31.1562 15.0522 31.2179 14.9406 31.2549 14.8225C31.8595 12.7205 32.2889 10.5651 33.1682 8.55169C33.8419 7.00572 34.5559 5.48189 35.6162 4.15736C36.6774 2.83365 38.0001 2.01186 39.6814 1.77402C40.9219 1.59851 42.1418 1.23519 43.3847 1.14661C44.4976 1.06706 45.456 0.519203 46.5245 0.335491C48.525 -0.00486891 50.5305 -0.0713006 52.5491 0.068944C53.6176 0.143577 54.6919 0.21739 55.7637 0.21657C57.084 0.21657 58.2915 0.523304 59.4341 1.39184C59.2079 1.8462 59.0236 2.37929 58.7094 2.81233C57.9493 3.86293 57.0946 4.843 56.3346 5.89525C54.2929 8.72064 51.7339 11.0072 49.0983 13.2142C47.5996 14.4699 46.0918 15.7165 44.5667 16.9393C44.167 17.2616 43.6833 17.4781 43.2194 17.7086C43.4447 17.4568 43.643 17.1747 43.898 16.9565C46.0383 15.1227 48.1548 13.2585 50.3454 11.487C52.7012 9.58097 54.636 7.28375 56.5238 4.92912C57.1621 4.13112 57.8161 3.34624 58.4536 2.54824C58.6008 2.36535 58.711 2.15129 58.8352 1.94953C58.9981 1.68955 58.8895 1.5411 58.6238 1.51732C57.5841 1.42792 56.6348 1.7609 55.7209 2.22592L55.5392 2.42194C54.7421 4.11635 53.5386 5.53028 52.4923 7.05411C50.0344 10.6308 46.6931 13.1527 43.1058 15.3925C42.9586 15.4827 42.8451 15.6271 42.7135 15.7452L42.5679 15.8649C40.4629 16.6859 38.4418 17.7045 36.4002 18.6755C35.8885 18.9208 35.3835 19.1857 34.8973 19.4801C34.7649 19.5605 34.6308 19.7885 34.6398 19.9377C34.6917 20.6349 34.7928 21.3279 34.8767 22.0201M34.9845 23.115C35.112 23.7826 35.2263 24.36 35.3308 24.9382C35.5529 26.1856 35.7256 27.447 36.0053 28.6805C36.2562 29.7983 36.5852 30.9006 36.9455 31.9881C37.56 33.8392 38.265 35.6599 38.8547 37.5192C39.1575 38.4804 39.7678 39.18 40.3716 39.9206C42.5325 42.568 45.3795 44.2255 48.335 45.7231C49.1666 46.1454 50.0394 46.4801 50.8957 46.8524C51.2264 46.9976 51.5093 46.9763 51.8268 46.7376C53.4564 45.5205 54.8597 44.0598 56.189 42.5237C56.8651 41.7413 57.5125 40.9326 58.1788 40.142C58.5309 39.7229 58.8862 39.3095 59.2539 38.9044C60.1201 37.9456 60.6712 36.7966 61.1582 35.6132C61.6986 34.2985 62.2037 32.9698 62.7367 31.6519C63.7345 29.1841 63.7748 26.5801 63.8118 23.9737C63.8283 22.7992 63.7798 21.6174 63.8908 20.4512C63.955 19.7606 64.2511 19.0873 64.4847 18.4205C64.5851 18.1293 64.8129 17.9104 65.1156 17.9702C65.3303 17.2633 65.5434 16.5784 65.7433 15.8887C65.7655 15.8026 65.7161 15.6902 65.6898 15.5943C64.9133 12.727 63.6588 10.0542 62.4488 7.3674C61.7603 5.83374 61.1911 4.23527 60.2336 2.83693C60.1834 2.76312 60.1341 2.6893 60.0477 2.56136C59.9893 2.80248 59.9457 2.98702 59.9005 3.17073C59.3905 5.22109 58.4404 7.07133 57.339 8.833C55.8493 11.2155 54.2913 13.5546 52.7465 15.9026C52.424 16.3939 52.0341 16.8384 51.6747 17.3059L51.5628 17.2387C51.8573 16.667 52.1106 16.07 52.4528 15.5287C53.7986 13.3955 55.1772 11.2852 56.5345 9.15778C57.7165 7.30589 58.7867 5.39086 59.4258 3.26094C59.5797 2.7541 59.6743 2.22674 59.8001 1.68873C60.7313 2.22674 61.706 2.73277 62.6216 3.33394C63.4581 3.88179 64.2388 4.52315 65.0309 5.13989C66.5444 6.32008 67.2428 7.95955 67.5019 9.8303C67.7133 11.3582 67.6771 12.8894 67.5324 14.4206C67.5151 14.5896 67.5307 14.761 67.5307 14.9701C67.9881 14.8373 68.137 15.1448 68.2094 15.5C68.8345 18.5238 69.5304 21.5354 70.0404 24.5798C70.3719 26.567 70.4583 28.5993 70.5998 30.6152C70.7149 32.2506 70.2378 33.7998 69.6217 35.2679C68.8189 37.1837 67.8779 39.0381 66.9886 40.9146C66.7188 41.4846 66.4235 42.0414 66.1233 42.6369C66.3034 42.7878 66.4902 42.9444 66.6777 43.1027C68.9653 45.0276 71.2258 46.9853 73.5479 48.865C75.3806 50.3503 77.2972 51.7306 79.1653 53.1716C83.6805 56.6507 88.2121 60.1076 92.6894 63.6367C94.4176 64.9997 96.0636 66.4924 97.3517 68.3246C99.1244 70.8424 100.254 73.6555 100.771 76.704C100.919 77.5725 101.091 78.4731 100.813 79.3769C100.524 80.3192 100.149 80.7449 99.1976 80.7112C97.4949 80.653 95.7798 80.5833 94.0968 80.334C91.0277 79.8812 87.9562 79.3883 84.9966 78.3927C83.7216 77.9646 82.4819 77.4274 81.2275 76.9386C81.0844 76.8828 80.9421 76.8246 80.78 76.759C80.6131 77.1395 80.4691 77.5053 80.2964 77.8555C80.1516 78.1499 79.9895 78.437 79.8077 78.7093C79.6539 78.9405 79.4417 79.0381 79.176 78.8552C78.8659 78.6428 78.5319 78.4649 78.2399 78.2303C76.1127 77.037 72.657 74.9858 70.5068 73.6629C69.9771 73.2299 69.4301 73.015 68.9234 72.5533L68.8164 72.623C69.4942 74.2165 70.1507 75.8199 70.8548 77.4003C72.1413 80.2798 72.8051 83.2824 72.532 86.4539C72.3338 88.7339 71.7349 90.9023 70.4328 92.8051C68.897 95.049 68.8789 97.4364 68.6338 100.027C68.4265 102.234 68.4372 104.458 68.5795 106.669C68.5853 108.298 68.9209 109.84 68.8033 111.474C68.795 111.586 68.7712 111.662 68.6626 111.696C68.0596 111.068 68.1329 109.209 68.0276 108.365C67.8482 106.941 67.8301 105.501 67.7339 104.069C67.59 101.897 67.7775 99.6164 68.0621 97.4643C68.299 95.692 68.7835 94.0099 69.7936 92.5082C71.4487 90.0461 71.985 87.2748 71.883 84.3305C71.8016 81.9751 71.1131 79.791 70.2148 77.6513C69.7393 76.5228 69.282 75.3869 68.832 74.2501C68.5993 73.6629 68.1929 73.038 68.1427 72.395C68.1172 72.0677 68.1682 71.8832 68.2702 71.7979" transform="translate(0.41114378 0.81410486)" id="Stroke-7" fill="none" fill-rule="evenodd" stroke="#020203" stroke-width="1" />
          </g>
          <path d="M7.03153 3.80275C7.63917 3.82217 8.19437 3.94225 8.72959 3.63235C8.96183 3.49903 9.23568 3.45929 9.39217 3.74977C9.54117 4.02436 9.46043 4.30866 9.249 4.52498C8.8994 4.88433 8.4624 4.97703 8.00958 4.9011C7.59755 4.83312 7.18718 4.72452 6.79263 4.57972C6.54875 4.48878 6.40641 4.50379 6.21662 4.71216C5.32347 5.68337 4.23222 6.10187 2.97365 5.97915C1.55444 5.84229 0.295038 4.63181 0.00453569 3.11937C-0.0237654 2.97545 0.0877742 2.80152 0.134388 2.64171C0.273396 2.71764 0.455688 2.75561 0.543089 2.87657C0.772827 3.19883 0.93431 3.5829 1.1732 3.89546C1.9648 4.932 3.17842 5.2269 4.33377 4.74836C5.52325 4.25657 6.12007 3.17941 6.65279 2.04486C6.87171 1.58133 6.97576 1.05599 7.14806 0.564202C7.24628 0.282551 7.31038 -0.0873918 7.71242 0.0185585C7.99793 0.0918407 8.10531 0.459135 7.98378 0.884702C7.90304 1.16282 7.80398 1.43476 7.77818 1.7791C8.03455 1.62282 8.29842 1.48156 8.54564 1.3085C8.76539 1.15488 8.96017 0.964165 9.16993 0.792879C9.39134 0.607466 9.60693 0.316102 9.90575 0.642782C10.0781 0.831727 10.004 1.40033 9.76591 1.62194C9.18907 2.15699 8.54397 2.57196 7.76985 2.62052C7.47103 2.63818 7.31704 2.72824 7.25128 3.04256C7.20134 3.28536 7.1156 3.5211 7.03153 3.80275" transform="translate(54 19)" id="Fill-9" fill="#1D1D1B" fill-rule="evenodd" stroke="none" />
          <path d="M0 2.92842C0.0207212 2.79258 0.0192411 2.64699 0.0636437 2.52335C0.312298 1.84986 0.522471 1.1479 0.841429 0.519152C1.19073 -0.169791 1.88193 -0.175485 2.24603 0.516712C2.56721 1.13001 2.77146 1.82465 2.992 2.49895C3.03048 2.61283 2.92317 2.87474 2.82031 2.93818C2.62493 3.05694 2.50875 2.86742 2.4414 2.66732C2.29117 2.22728 2.14317 1.78642 1.99072 1.34719C1.94557 1.21379 1.89747 1.07714 1.83161 0.955131C1.62958 0.587477 1.42384 0.561449 1.22995 0.922595C0.935415 1.47001 0.68602 2.04752 0.404064 2.6055C0.330059 2.75273 0.204992 2.86904 0.105826 3L0 2.92842" transform="translate(49 27)" id="Fill-11" fill="#1D1D1B" fill-rule="evenodd" stroke="none" />
          <path d="M1.7814 0C1.91528 0.0826611 2.13956 0.152971 2.26406 0.318293C2.52926 0.676491 2.7578 1.07554 2.96758 1.48125C3.0213 1.58101 3.00595 1.83755 2.93858 1.8898C2.82858 1.97722 2.59493 2.04087 2.51647 1.96866C2.29646 1.76344 2.09692 1.5069 1.94854 1.22947C1.69698 0.757252 1.6586 0.715446 1.24246 1.01474C0.949966 1.22471 0.687318 1.49265 0.392266 1.70073C0.289936 1.77199 0.131324 1.73968 0 1.75489C0.0213188 1.61807 0.00596927 1.44609 0.0741895 1.35108C0.504829 0.741099 0.977254 0.182424 1.7814 0" transform="translate(58 14)" id="Fill-13" fill="#1D1D1B" fill-rule="evenodd" stroke="none" />
          <path d="M10 0.73546C8.77892 2.18257 7.76178 3.86381 5.99657 4.69751C4.7892 5.26858 3.64696 5.00594 2.67781 4.12126C1.75064 3.27805 0.908312 2.32944 0.0317052 1.42057C-0.00771208 1.37824 0.0154242 1.26592 0 1.113C0.558698 1.03871 1.14225 1.03525 1.68123 0.870236C2.2048 0.710406 2.67781 0.3631 3.18766 0.138474C3.85347 -0.156131 4.41388 0.148842 4.96401 0.658569C5.76778 -0.199328 6.60583 -0.156995 7.52956 0.42876C7.82691 0.616236 8.2862 0.531569 8.67095 0.529841C9.07883 0.529841 9.48586 0.478869 9.89289 0.452086C9.92888 0.54712 9.96487 0.640426 10 0.73546" transform="translate(46 35)" id="Fill-15" fill="#BD1735" fill-rule="evenodd" stroke="none" />
          <path d="M42.0098 15.5347C41.8222 15.2183 41.6667 14.9611 41.5161 14.6998C41.2338 14.2051 41.1022 14.1788 40.6381 14.4985C40.0941 14.8724 39.644 15.3523 39.0828 15.7229C37.8172 16.5611 36.6618 17.5727 35.4645 18.5152C35.3345 18.6188 35.2185 18.7396 35.0201 18.9195C37.4057 17.7641 39.6884 16.6589 42.0098 15.5347M67.0152 15.93C67.0292 15.6366 67.0596 15.3761 67.0555 15.1156C67.0275 13.4351 67.0736 11.7496 66.9411 10.079C66.7955 8.24893 66.068 6.65881 64.6 5.49766C63.9663 4.99556 63.3566 4.46059 62.709 3.97657C62.0992 3.52131 61.454 3.11454 60.8089 2.67736C61.3043 3.67909 61.789 4.63316 62.2498 5.59791C63.7475 8.72144 65.2361 11.8507 66.2351 15.192C66.2688 15.303 66.3634 15.4057 66.4507 15.4862C66.5988 15.6226 66.765 15.736 67.0152 15.93M41.5186 13.749C41.7786 14.1278 42.051 14.4943 42.2896 14.883C42.4525 15.1518 42.5949 15.1904 42.8739 15.0244C44.3987 14.1204 45.8717 13.1401 47.2056 11.9551C48.2787 11.0002 49.4603 10.1398 50.3844 9.05179C51.8401 7.33595 53.1247 5.46808 54.4751 3.65773C54.6791 3.38408 54.8355 3.07427 55.0157 2.78255C50.4215 6.35723 45.5442 9.53253 41.5186 13.749M33.9989 17.9696C33.9767 17.797 33.9364 17.6047 33.9339 17.4116C33.924 16.5529 33.9512 15.6925 33.9183 14.8354C33.8722 13.629 34.0458 12.4638 34.4137 11.319C34.9123 9.76262 35.8011 8.46505 36.8758 7.27432C38.8869 5.04405 41.0363 2.99621 43.6622 1.52853L43.7733 1.38966C43.6178 1.41184 43.5166 1.42171 43.4145 1.44225C42.2476 1.66659 41.0874 1.94846 39.9123 2.10459C38.2048 2.33058 36.8799 3.15399 35.8315 4.51976C34.8942 5.74008 34.2623 7.13133 33.6615 8.53819C32.8304 10.4899 32.4815 12.5911 31.8915 14.6176L31.8882 14.6028C32.8814 15.5166 32.9514 16.7345 33.19 17.8315C33.4756 17.88 33.7233 17.9227 33.9989 17.9696M34.5972 18.0493L34.6836 18.0592C34.7395 17.9458 34.8004 17.834 34.8498 17.7173C35.4752 16.2348 36.0101 14.7047 36.7375 13.279C38.3751 10.0741 40.4603 7.20036 43.1685 4.84353C43.8655 4.23543 44.5797 3.6339 45.3458 3.12687C47.0023 2.03228 48.853 1.39212 50.7506 0.886736C51.2172 0.761828 51.6813 0.629524 52.1487 0.501329C51.5488 0.442983 50.9596 0.425726 50.3746 0.451201C49.2892 0.500507 48.1931 0.495576 47.1233 0.654999C45.2455 0.936864 43.6573 1.94928 42.1431 3.03976C40.2439 4.40964 38.5602 6.03509 37.019 7.81915C35.727 9.31476 34.835 10.9887 34.5001 12.9667C34.2828 14.2495 34.3989 15.5281 34.491 16.806C34.5223 17.2218 34.561 17.6351 34.5972 18.0493M35.1584 18.152C35.8192 17.6277 36.4339 17.1454 37.0445 16.6564C38.6129 15.3983 40.276 14.2445 41.7202 12.8516C43.8943 10.7553 46.2288 8.87429 48.5872 7.0171C50.6066 5.42617 52.6696 3.89275 54.7384 2.37002C55.2445 1.99858 55.8328 1.71672 56.4196 1.49238C56.9758 1.28036 57.579 1.19654 58.1921 1.04862C58.0662 0.990279 57.9411 0.899063 57.802 0.871123C57.3725 0.783194 56.9405 0.691978 56.5051 0.650068C54.5582 0.452845 52.6713 0.758541 50.7975 1.30091C48.4893 1.96736 46.2288 2.75461 44.3641 4.33815C42.5414 5.88553 40.8915 7.60795 39.4621 9.57443C37.5687 12.1794 36.3376 15.1008 35.1584 18.152M69.3036 55.4248C68.4454 54.4765 67.6249 53.6128 66.8514 52.7072C65.7282 51.3941 64.6247 50.0636 63.5393 48.7176C62.9624 48.0051 62.4522 47.2343 61.8918 46.5095C61.1817 45.5957 60.5176 44.6597 60.0107 43.6029C59.4923 42.5198 59.3392 41.4186 59.5704 40.2485C59.6289 39.9608 59.6848 39.674 59.7613 39.2812C59.6042 39.3963 59.5243 39.4341 59.4725 39.4974C58.9779 40.089 58.5105 40.7078 57.9888 41.2757C56.5998 42.791 55.2206 44.3162 53.769 45.7666C53.3131 46.221 53.2415 46.6508 53.3238 47.2022C53.3411 47.3197 53.3633 47.4373 53.3929 47.5531C53.6513 48.605 53.9138 49.6568 54.1731 50.7095C54.731 52.9825 56.12 54.5669 58.1353 55.5809C60.0008 56.5202 61.9881 56.6155 64.0133 56.3049C65.5183 56.0748 67.025 55.8513 68.5301 55.6155C68.7679 55.5793 69 55.5012 69.3036 55.4248M39.5625 39.794C39.5872 40.1548 39.6325 40.4013 39.6119 40.6421C39.5675 41.1516 39.5642 41.6816 39.4103 42.1582C38.9939 43.4599 38.208 44.552 37.3588 45.5907C36.7523 46.3312 36.1031 47.0354 35.5073 47.7857C34.3289 49.2599 33.204 50.7802 32.0009 52.2355C30.1774 54.4362 28.3086 56.5983 26.4579 58.7784L26.3271 58.9773C27.1072 58.7193 27.8437 58.4029 28.5785 58.0816C30.6711 57.1678 32.7786 56.2934 35.0251 55.8332C36.9251 55.4429 38.8334 55.2843 40.7722 55.4462C42.19 55.5637 43.6128 55.6105 45.0323 55.6886C45.5557 55.7174 46.0256 55.5719 46.4551 55.2621C47.2764 54.6704 47.6319 53.8125 47.7866 52.8412C48.1091 50.8139 48.254 48.7734 48.2227 46.7174C48.2194 46.461 48.1289 46.3246 47.9059 46.1989C46.5794 45.4527 45.243 44.7254 43.9568 43.9152C42.52 43.0088 41.1976 41.9462 40.1953 40.5205C40.0324 40.2904 39.825 40.0923 39.5625 39.794M35.0671 56.4808L35.1419 56.6229L35.3748 56.835C36.8363 57.9731 38.2731 59.1482 39.904 60.0357C41.6288 60.9742 43.3437 61.9513 45.2208 62.5323C48.7897 63.6367 52.4302 63.7386 56.0945 63.1576C58.0761 62.8445 59.9432 62.1493 61.761 61.2922C63.7269 60.3677 65.5619 59.2477 67.1329 57.7126C67.527 57.3264 67.8718 56.8859 68.2396 56.4701L68.1788 56.3789C67.1452 56.5202 66.1075 56.6418 65.0764 56.8087C63.1385 57.125 61.2105 57.3757 59.2734 56.7676C56.5825 55.9203 54.6158 54.2916 53.7295 51.4787C53.2473 49.9445 52.9543 48.3642 52.7355 46.724C52.6046 46.825 52.4886 46.9023 52.3866 46.9968C51.7472 47.5802 51.0765 47.7734 50.2668 47.3165C49.792 47.0494 49.2571 46.8932 48.7164 46.673C48.7197 47.6772 48.7321 48.628 48.7238 49.5788C48.7123 51.164 48.5033 52.7237 48.0236 54.2324C47.6467 55.4149 46.46 56.3575 45.3162 56.3435C43.8671 56.3238 42.4172 56.2712 40.9754 56.1512C38.9997 55.9861 37.0494 56.0822 35.0671 56.4808M82.4461 69.3159L82.3342 69.4614C81.3665 71.4344 80.6637 73.5045 80.1412 75.6443C80.0737 75.9196 80.1494 76.0265 80.3823 76.116C81.931 76.7093 83.4632 77.3544 85.0292 77.8968C87.7958 78.8566 90.6759 79.3415 93.5544 79.7655C95.3944 80.0359 97.2599 80.1221 99.1155 80.2692C99.9212 80.3342 100.217 80.1608 100.315 79.3554C100.408 78.5813 100.418 77.762 100.28 76.9961C99.4743 72.5167 97.5652 68.6445 94.072 65.7158C92.1711 64.1216 90.2348 62.5684 88.2821 61.0399C85.086 58.5377 81.8635 56.0682 78.6468 53.5898C76.8677 52.2199 75.0376 50.9174 73.307 49.4859C70.8515 47.457 68.4684 45.3376 66.0516 43.2561C65.9734 43.1887 65.8886 43.1016 65.7965 43.0852C65.4221 43.0162 65.4451 42.8148 65.5874 42.5395C66.5214 40.7251 67.49 38.9271 68.3713 37.0855C69.5003 34.7221 70.2845 32.2798 70.0846 29.5639C69.8797 26.7715 69.5875 24.003 68.949 21.2747C68.5927 19.7438 68.3104 18.1947 67.9928 16.6531C67.9179 16.2891 67.8438 15.9259 67.7574 15.501C67.2489 15.9867 66.974 16.4962 67.0152 17.1289C67.0563 17.8028 67.1147 18.4774 67.2193 19.1431C67.5756 21.389 67.9854 23.6283 68.3121 25.8799C68.5038 27.1996 68.5762 28.5391 68.7013 29.8696C68.7367 30.2525 68.5935 30.5311 68.1977 30.7324C68.1656 30.582 68.1195 30.4629 68.1195 30.3437C68.1055 27.977 67.7229 25.6523 67.3591 23.325C67.0325 21.2353 66.7568 19.1365 66.4655 17.041C66.421 16.7246 66.4128 16.4017 66.3898 16.082L66.2417 16.0467C66.1067 16.3491 65.9479 16.6433 65.8417 16.9564C65.492 17.9926 65.5019 19.0634 65.5998 20.1382C65.836 22.749 66.0886 25.3581 66.3091 27.9713C66.3676 28.641 66.347 29.3182 66.3305 29.992C66.3272 30.098 66.1553 30.1983 66.0623 30.3018C65.9717 30.2081 65.8714 30.121 65.7965 30.015L65.7866 29.8194C65.7397 28.6714 65.7158 27.5218 65.6409 26.373C65.4813 23.9956 65.2961 21.6199 65.12 19.245C65.1061 19.0568 65.0789 18.8694 65.0575 18.6812C64.8962 18.7626 64.7983 18.8554 64.7703 18.9672C64.6543 19.4126 64.4922 19.8621 64.4724 20.3149C64.4165 21.5837 64.4082 22.8566 64.4074 24.1262C64.4074 26.0796 64.3021 28.0313 63.8865 29.9328C63.2916 32.6636 62.1469 35.1946 60.9183 37.6763C60.4476 38.6271 60.1489 39.6091 59.9843 40.6437C59.8774 41.3151 59.8733 42.0062 60.1679 42.634C60.5266 43.3933 60.878 44.1757 61.3578 44.8544C62.2136 46.0633 63.1599 47.2055 64.0741 48.37C64.8691 49.3815 65.6368 50.4186 66.4803 51.3867C67.8619 52.9784 69.2897 54.5299 70.71 56.0863C72.22 57.743 73.7506 59.3775 75.2548 61.0383C78.3818 64.4897 81.7022 67.739 85.0769 70.9323C86.1319 71.9308 87.1983 72.9144 88.2443 73.9236C88.3496 74.0263 88.334 74.258 88.3759 74.4298C88.2212 74.3895 88.0245 74.3953 87.9151 74.2991C86.9935 73.4864 86.0858 72.658 85.1773 71.8289C84.2697 71.0014 83.3686 70.1665 82.4461 69.3159M30.4062 15.2553C30.356 15.4501 30.3008 15.6111 30.2786 15.7771C30.2029 16.3277 30.1585 16.8832 30.0721 17.4313C29.8104 19.0773 29.515 20.7167 29.2739 22.3644C28.8451 25.2849 29.0319 28.1619 29.8022 31.02C30.4852 33.565 31.336 36.0476 32.2305 38.5186C32.5893 39.5105 32.953 40.5016 33.3143 41.4934C33.4706 41.924 33.4196 42.0185 33.0032 42.1582C32.8979 42.1927 32.8049 42.2799 32.7201 42.3596C31.4463 43.5593 30.1832 44.7764 28.8945 45.9663C26.8216 47.881 24.7545 49.8064 22.6405 51.6759C19.9299 54.0763 17.1419 56.3871 14.4486 58.8088C11.4779 61.4779 7.96331 64.6984 5.73656 67.5212C4.71452 68.6478 4.07101 69.6652 3.26128 70.9759C2.21209 72.6753 1.61714 74.5645 1.01478 76.4546C0.710306 77.4103 0.623079 78.4055 0.674099 79.3982C0.706192 80.0211 0.90451 80.6341 1.03124 81.2521C1.07403 81.4633 1.20734 81.5002 1.40812 81.4772C2.42358 81.3589 3.44232 81.2726 4.45448 81.1403C6.72403 80.8445 8.90388 80.169 11.0656 79.4384C13.4364 78.6347 15.752 77.6971 18.0051 76.5869C19.8336 75.6887 21.7032 74.8793 23.5572 74.037C23.8074 73.9236 23.9234 73.7913 23.9036 73.4782C23.8271 72.3828 23.8246 71.2791 23.73 70.1862C23.5753 68.4202 23.3869 66.6575 23.177 64.8989C23.1021 64.2802 22.9211 63.6762 22.7894 63.0656L22.6611 63.0393C22.5829 63.142 22.5113 63.2513 22.4257 63.3491C19.3497 66.8243 16.2729 70.302 13.192 73.7732C13.0134 73.9753 12.8126 74.3394 12.5082 74.046C12.2309 73.7756 12.5559 73.5472 12.7271 73.3541C16.5017 69.0784 20.2804 64.8053 24.0551 60.528C24.2147 60.3464 24.3003 60.0957 24.4632 59.919C24.8804 59.4704 25.3569 59.0776 25.7469 58.6083C28.2831 55.5645 30.9699 52.6579 33.3546 49.4777C34.4614 47.9985 35.755 46.6656 36.9046 45.2168C37.5547 44.4 38.1422 43.5166 38.6483 42.5987C39.3017 41.4088 39.1354 40.1367 38.7215 38.9008C38.2533 37.498 37.7587 36.1043 37.2699 34.7081C36.461 32.4055 35.5353 30.1457 35.2045 27.6894C34.951 25.801 34.5865 23.9298 34.2812 22.0496C34.115 21.0192 33.9874 19.9821 33.808 18.9549C33.7759 18.7692 33.5801 18.6122 33.4583 18.4413C33.3859 18.6369 33.2616 18.8267 33.2452 19.0272C33.1908 19.7397 33.209 20.4579 33.1349 21.1687C32.8823 23.6077 32.8609 26.0319 33.4476 28.4331C33.5356 28.7914 33.5941 29.1604 33.6385 29.5269C33.6566 29.6691 33.6006 29.8194 33.5784 29.9649C33.4336 29.9057 33.3785 29.8613 33.3628 29.8046C32.9209 28.2794 32.4601 26.7477 32.4733 25.1428C32.4922 23.2782 32.6041 21.4128 32.6732 19.5482C32.7226 18.198 32.5589 16.8783 32.0503 15.621C31.996 15.4829 31.8553 15.3818 31.7541 15.2635C31.6718 15.4155 31.578 15.5635 31.5146 15.7237C31.4825 15.8034 31.5088 15.9078 31.508 15.9998C31.5031 16.649 31.5442 17.3023 31.4842 17.9458C31.3377 19.4866 31.1007 21.0192 30.9797 22.5633C30.8497 24.1986 30.8184 25.8405 31.1353 27.4708C31.262 28.1184 31.3113 28.7832 31.3657 29.4422C31.3764 29.5663 31.2472 29.7027 31.1813 29.8326C31.1015 29.7332 30.9649 29.6428 30.9468 29.5326C30.7617 28.4093 30.4745 27.2859 30.4514 26.1593C30.4152 24.3227 30.4909 22.4786 30.6415 20.6469C30.7641 19.1603 31.104 17.6935 31.0209 16.1839C30.9962 15.7525 30.8678 15.4443 30.4062 15.2553M68.2964 71.9398C68.6511 71.6391 69.6229 72.5718 70.0681 72.8725C72.4488 74.4963 75.0088 75.8325 77.5433 77.1843C78.0576 77.6001 78.5431 77.8237 79.0887 78.2748C79.5717 74.9746 80.4416 71.8667 82.103 68.8845C81.9886 68.8031 81.8281 68.7152 81.6965 68.5944C79.2368 66.3305 77.0413 63.806 74.7998 61.3275C73.27 59.6355 71.704 57.9772 70.1685 56.2918C69.9258 56.0263 69.6707 55.9968 69.3662 56.0756L69.1794 56.1899C68.3911 57.563 67.2571 58.6034 66.0425 59.5575C64.4798 60.7835 62.7295 61.6817 60.9274 62.4517C58.8298 63.3507 56.6376 63.8931 54.3557 64.0821C51.5842 64.3106 48.853 64.1092 46.1424 63.5028C44.416 63.1141 42.8475 62.3219 41.303 61.4878C40.0349 60.8033 38.7865 60.0686 37.5777 59.2789C36.7968 58.7678 36.1031 58.1161 35.3707 57.5277C35.2176 57.4053 35.0596 57.2894 34.9115 57.162C34.4729 56.7832 34.045 56.7659 33.4608 56.913C30.7649 57.5893 28.3497 58.9954 25.7445 59.9026C25.4894 59.9905 25.2433 60.1812 25.0549 60.385C24.3957 61.095 23.7646 61.8321 23.1515 62.5281C23.7185 64.0525 24.0057 65.5991 24.1332 67.1703C24.2953 69.1623 24.4393 71.1575 24.5019 73.1536C24.5455 74.5144 24.4361 75.8794 24.3941 77.2427C24.3916 77.3068 24.3859 77.3709 24.376 77.5081C24.9495 77.2566 25.4729 77.02 26.0037 76.7948C28.9513 75.5424 31.9038 74.2925 34.8539 73.0418C34.9609 72.9958 35.0736 72.935 35.1847 72.9342C35.3139 72.9325 35.4801 72.9514 35.5608 73.0328C35.6184 73.0895 35.5657 73.2678 35.5501 73.3894L35.481 73.5743C34.9749 75.9681 33.7981 78.094 32.888 80.3235C32.354 81.6358 31.7969 82.9424 31.5928 84.3485C31.2036 87.0463 31.5368 89.6406 32.9868 91.9925C33.5085 92.8398 34.082 93.6681 34.7091 94.4365C36.3639 96.4638 37.4164 98.7869 38.0015 101.335C38.445 103.266 38.896 105.202 39.1972 107.161C39.4605 108.87 39.523 110.61 39.6621 112.339C39.6835 112.606 39.7181 112.985 39.3494 112.998C38.9281 113.016 39.0079 112.614 38.9931 112.339C38.8137 108.987 38.4269 105.668 37.5761 102.413C37.2 100.979 36.8248 99.5511 36.2306 98.1895C35.6225 96.7974 34.7823 95.5631 33.8294 94.4044C32.9711 93.3632 32.3062 92.2045 31.7327 90.9793C30.932 89.2676 30.7847 87.4408 30.8316 85.5893C30.876 83.7091 31.5656 82.0007 32.2799 80.3079C32.9983 78.6076 33.7331 76.9123 34.4392 75.2063C34.6326 74.7396 34.7519 74.2399 34.9313 73.6622C34.691 73.742 34.5445 73.7789 34.4079 73.8364C32.4321 74.6599 30.4555 75.48 28.4855 76.3165C27.3006 76.8178 26.1337 77.3569 24.952 77.8598C24.6089 78.0061 24.2386 78.0932 23.8773 78.1918C23.5086 78.2921 23.2404 78.1384 23.098 77.7875C22.8479 77.1761 22.6133 76.5598 22.3755 75.9451C22.3146 75.7865 22.2677 75.6221 22.2044 75.4348C22.1147 75.4586 22.0406 75.4693 21.9764 75.4997C19.7431 76.5097 17.5344 77.5862 15.2673 78.5131C13.3261 79.3069 11.3372 79.9972 9.33261 80.6086C7.78886 81.0787 6.19738 81.4049 4.60919 81.6991C3.64722 81.875 2.65399 81.8766 1.67227 81.9333C1.39249 81.9489 1.09707 81.9193 0.831272 81.838C0.670807 81.7887 0.47002 81.621 0.428876 81.4657C0.25689 80.8338 0.0618638 80.192 0.0198961 79.5436C-0.0730912 78.1014 0.16308 76.6987 0.660932 75.3362C1.2131 73.8225 1.73893 72.303 2.56347 70.9093C3.45549 69.3956 4.55159 67.8844 5.73409 66.6214C7.79051 64.4215 9.52846 62.3104 12.021 60.2979C14.5638 58.2426 16.8415 55.8834 19.3069 53.7402C21.7518 51.6135 24.1785 49.4621 26.5863 47.2918C28.3144 45.7337 29.9972 44.1231 31.7063 42.5428C31.9738 42.2946 32.2881 42.0999 32.5547 41.8509C32.637 41.7728 32.6946 41.5748 32.6584 41.4696C31.81 38.9969 30.8917 36.5489 30.1042 34.0548C29.3907 31.8024 28.7069 29.5129 28.5604 27.1405C28.46 25.5397 28.5876 23.9085 28.762 22.3077C28.9381 20.7077 29.3068 19.1299 29.5792 17.5406C29.6878 16.9021 29.761 16.2578 29.8548 15.6161C29.8754 15.487 29.91 15.3564 29.9577 15.2356C30.1502 14.7516 30.4144 14.6817 30.8291 14.9964C30.9106 15.0614 30.9912 15.1255 31.1106 15.2191C31.1682 15.0819 31.2299 14.9701 31.2669 14.8518C31.8717 12.7456 32.3013 10.586 33.181 8.56859C33.8549 7.01957 34.5692 5.49273 35.6299 4.16558C36.6914 2.83925 38.0147 2.01584 39.6967 1.77753C40.9376 1.60167 42.1579 1.23763 43.4013 1.14888C44.5147 1.06917 45.4734 0.520229 46.5423 0.336154C48.5436 -0.00487854 50.5498 -0.0714415 52.5692 0.0690803C53.6382 0.143861 54.7129 0.21782 55.7851 0.216998C57.1059 0.216998 58.3139 0.524338 59.4569 1.39459C59.2306 1.84985 59.0462 2.38399 58.7319 2.81788C57.9715 3.87056 57.1166 4.85257 56.3562 5.9069C54.3138 8.73788 51.7537 11.029 49.1172 13.2403C47.6179 14.4985 46.1095 15.7475 44.5838 16.9728C44.1839 17.2957 43.7001 17.5127 43.2359 17.7436C43.4614 17.4913 43.6597 17.2086 43.9148 16.99C46.056 15.1526 48.1733 13.2847 50.3647 11.5097C52.7215 9.59991 54.6569 7.29815 56.5455 4.93886C57.184 4.13928 57.8382 3.35285 58.476 2.55328C58.6233 2.37002 58.7335 2.15554 58.8578 1.95339C59.0207 1.69289 58.9121 1.54415 58.6463 1.52032C57.6062 1.43074 56.6566 1.76438 55.7423 2.23032L55.5605 2.42672C54.7631 4.12449 53.5592 5.54121 52.5125 7.06805C50.0536 10.6518 46.711 13.1787 43.1224 15.4229C42.9751 15.5133 42.8615 15.658 42.7299 15.7763L42.5842 15.8963C40.4784 16.7189 38.4566 17.7395 36.4141 18.7125C35.9023 18.9582 35.397 19.2236 34.9107 19.5186C34.7782 19.5991 34.6441 19.8276 34.6531 19.9772C34.705 20.6757 34.8062 21.37 34.8901 22.0636C35.5954 22.1285 36.3006 22.343 37.0033 22.0595L36.8996 21.9921C37.0074 21.7571 37.0601 21.3906 37.2362 21.3133C37.6156 21.1449 37.762 21.5344 37.8855 21.8187C38.1932 22.5254 38.5652 23.1763 39.0861 23.7523C40.2579 25.0491 42.4509 24.9842 43.2294 22.8443C43.3964 22.3874 43.4935 21.9042 43.654 21.444C43.6968 21.3216 43.8531 21.2386 43.956 21.1375C44.0399 21.2525 44.1954 21.3709 44.1963 21.4876C44.1971 22.8468 43.8037 24.026 42.7142 24.9069C41.8477 25.6095 40.011 25.6876 39.0581 24.9365C38.9561 24.856 38.8466 24.7894 38.7528 24.7229C38.4335 24.9579 38.1537 25.2307 37.8229 25.3893C37.4938 25.5479 37.1177 25.6317 36.7523 25.672C36.4676 25.704 36.2059 25.5413 36.159 25.2151C36.1105 24.8683 36.3672 24.7401 36.6371 24.6382C37.1161 24.4558 37.5925 24.2676 38.0961 24.072C37.8781 23.717 37.7192 23.4343 37.5341 23.1705L37.2815 23.0834C36.5565 23.3234 35.8266 23.4393 34.9979 23.1607C35.1255 23.8296 35.2399 24.4081 35.3444 24.9875C35.5665 26.2374 35.7394 27.5012 36.0191 28.7372C36.2701 29.8572 36.5993 30.9617 36.9597 32.0513C37.5744 33.9061 38.2796 35.7304 38.8697 37.5933C39.1725 38.5564 39.7831 39.2574 40.3871 39.9995C42.5488 42.6521 45.3969 44.3129 48.3535 45.8134C49.1855 46.2367 50.0586 46.5719 50.9152 46.945C51.246 47.0905 51.5291 47.0691 51.8467 46.83C53.4769 45.6105 54.8807 44.1469 56.2105 42.6077C56.887 41.8238 57.5346 41.0135 58.2011 40.2213C58.5533 39.8014 58.9088 39.3872 59.2767 38.9813C60.1432 38.0207 60.6945 36.8694 61.1817 35.6836C61.7223 34.3663 62.2276 33.035 62.7608 31.7144C63.759 29.2417 63.7993 26.6326 63.8363 24.0211C63.8528 22.8443 63.8042 21.6601 63.9153 20.4916C63.9795 19.7997 64.2758 19.125 64.5095 18.4569C64.6098 18.1652 64.8378 17.9458 65.1406 18.0057C65.3554 17.2974 65.5685 16.6112 65.7685 15.9201C65.7907 15.8338 65.7413 15.7212 65.715 15.6251C64.9382 12.7522 63.6833 10.0741 62.4728 7.38197C61.784 5.84527 61.2146 4.24365 60.2567 2.84254C60.2065 2.76858 60.1572 2.69462 60.0708 2.56642C60.0123 2.80802 59.9687 2.99292 59.9235 3.177C59.4133 5.23141 58.4628 7.08531 57.361 8.85046C55.8707 11.2377 54.3121 13.5814 52.7667 15.9341C52.4442 16.4263 52.0541 16.8717 51.6945 17.3401L51.5826 17.2727C51.8772 16.7 52.1306 16.1017 52.4729 15.5594C53.8192 13.4219 55.1984 11.3075 56.5562 9.17588C57.7387 7.32033 58.8093 5.40151 59.4486 3.26739C59.6025 2.75954 59.6972 2.23114 59.8231 1.69207C60.7546 2.23114 61.7297 2.73817 62.6456 3.34053C63.4825 3.88947 64.2634 4.53209 65.0559 5.15005C66.57 6.33257 67.2686 7.97528 67.5278 9.84973C67.7393 11.3807 67.7031 12.9149 67.5583 14.4491C67.541 14.6184 67.5566 14.7902 67.5566 14.9997C68.0142 14.8666 68.1631 15.1748 68.2355 15.5306C68.8609 18.5604 69.5571 21.578 70.0673 24.6283C70.3989 26.6195 70.4853 28.6558 70.6269 30.6757C70.7421 32.3143 70.2648 33.8666 69.6484 35.3376C68.8453 37.2572 67.9039 39.1152 67.0144 40.9954C66.7444 41.5666 66.449 42.1245 66.1487 42.7211C66.3289 42.8724 66.5157 43.0293 66.7033 43.1879C68.9918 45.1166 71.2531 47.0781 73.5761 48.9616C75.4095 50.4498 77.3269 51.8329 79.1957 53.2767C83.7126 56.7626 88.2459 60.2264 92.7249 63.7624C94.4538 65.1282 96.1004 66.6238 97.3891 68.4596C99.1624 70.9825 100.292 73.8011 100.81 76.8556C100.958 77.7259 101.13 78.6282 100.852 79.5338C100.563 80.478 100.188 80.9044 99.2357 80.8708C97.5323 80.8124 95.8165 80.7426 94.1329 80.4928C91.0627 80.0391 87.99 79.5453 85.0292 78.5476C83.7537 78.1187 82.5136 77.5804 81.2587 77.0906C81.1155 77.0348 80.9731 76.9764 80.811 76.9107C80.644 77.292 80.5 77.6585 80.3272 78.0094C80.1823 78.3044 80.0202 78.592 79.8384 78.8648C79.6845 79.0966 79.4722 79.1944 79.2064 79.0111C78.8962 78.7983 78.5621 78.6199 78.2699 78.3849C76.1419 77.1893 72.6849 75.134 70.5339 73.8085C70.0039 73.3746 69.4567 73.1593 68.9498 72.6967L68.8428 72.7665C69.5209 74.3632 70.1776 75.9698 70.882 77.5533C72.169 80.4385 72.8331 83.447 72.5599 86.6248C72.3615 88.9093 71.7625 91.082 70.4598 92.9885C68.9235 95.2369 68.9054 97.629 68.6601 100.225C68.4528 102.436 68.4635 104.665 68.6058 106.88C68.6116 108.512 68.9473 110.057 68.8297 111.694C68.8214 111.806 68.7976 111.883 68.6889 111.917C68.0858 111.288 68.159 109.425 68.0537 108.579C67.8743 107.152 67.8562 105.709 67.7599 104.275C67.6159 102.099 67.8035 99.8133 68.0882 97.657C68.3252 95.8811 68.8099 94.1957 69.8204 92.691C71.4761 90.2241 72.0126 87.4473 71.9106 84.4972C71.8291 82.1371 71.1404 79.9487 70.2418 77.8048C69.7661 76.674 69.3086 75.5359 68.8585 74.3969C68.6256 73.8085 68.2191 73.1823 68.1689 72.5381C68.1434 72.2102 68.1944 72.0253 68.2964 71.9398L35.7961 41.4994" id="Fill-17" fill="#1D1D1B" fill-rule="evenodd" stroke="none" />
        </g>
      </g>
    </g>
  </g>
</svg>