<?xml version="1.0" encoding="utf-8"?>
<svg width="140px" height="140px" viewbox="0 0 140 140" version="1.1" xmlns:xlink="http://www.w3.org/1999/xlink" xmlns="http://www.w3.org/2000/svg">
  <defs>
    <path d="M0 0L72.816 0L72.816 62.3806L0 62.3806L0 0Z" transform="translate(7.3151874E-05 0.5173957)" id="path_1" />
    <clipPath id="mask_1">
      <use xlink:href="#path_1" />
    </clipPath>
  </defs>
  <g id="PICTO-1">
    <g id="Group-25" transform="translate(33 24)">
      <path d="M8.77473 14.0413L0.558571 14.0807L0 0.0394286L8.2171 0L8.77473 14.0413Z" transform="translate(33.28879 1.928996)" id="Fill-1" fill="#29347E" fill-rule="evenodd" stroke="none" />
      <path d="M8.34665 13.9924L0.253469 13.9924L0 0L8.09412 0L8.34665 13.9924Z" transform="translate(49.964825 1.9796898)" id="Fill-2" fill="#BD1735" fill-rule="evenodd" stroke="none" />
      <g id="Group-24" transform="translate(0 0.25450203)">
        <path d="M11.2344 1.23933C10.5726 1.23463 2.03257 1.30129 1.37073 1.3041C1.37073 2.51231 1.69836 14.9595 1.75845 14.8995C2.68314 15.183 20.1087 14.7615 25.5386 14.7502C25.4231 14.7502 25.4231 2.6888 25.3311 1.56133C23.079 1.2628 20.732 1.37357 18.4733 1.3088C16.0522 1.3088 13.6424 1.25623 11.2344 1.23933M2.07763 16.4785C2.02881 16.4775 1.99783 23.0771 2.00065 23.554C2.01285 25.3677 2.02787 27.1824 2.00816 28.9961C2.00159 29.5828 1.97718 31.6294 1.97718 32.2189C1.97718 32.4564 1.35477 32.6667 0.325875 32.4977C0.0677116 27.7034 0.0752218 21.8088 0.236691 17.0089C0.267671 16.071 0.242324 15.1295 0.201018 14.1907C0.00762994 9.76623 0.0245279 5.28639 0.000119738 0.898553C-0.000819038 0.781206 0.00199729 0.654471 0.0752218 0.564349C0.144691 0.477981 0.257344 0.433859 0.367181 0.420716C2.68502 0.163492 8.85653 -0.0758962 12.943 0.0226752C15.2787 0.0790018 17.6144 0.0330018 19.9491 0.015165C21.1122 0.00577726 22.2763 0.00389971 23.4385 0.0254915C24.0234 0.0358181 24.6073 0.0517773 25.1912 0.0761854C25.6597 0.0958997 26.2549 0.00859359 26.6801 0.229206C26.7533 0.267696 26.743 1.43929 26.7496 1.58761C26.7759 2.09737 26.7956 2.60712 26.8134 3.11688C26.8378 3.82565 26.8529 4.53537 26.8754 5.24508C26.9486 7.44745 26.988 9.65076 26.9777 11.8559C26.9702 13.2876 26.9411 14.7201 26.8857 16.1508C26.866 16.6484 18.908 16.4494 17.9711 16.4719C17.651 16.4785 17.1562 16.4869 16.8305 16.4785C14.1916 16.4184 11.6362 16.5386 9.14192 16.5085C6.86726 16.4813 3.04738 16.4991 2.07763 16.4785" transform="translate(32.63519 0.6845044)" id="Fill-3" fill="#1D1D1B" fill-rule="evenodd" stroke="none" />
        <g id="Group-7" transform="translate(0 28.163265)">
          <path d="M0 0L72.816 0L72.816 62.3806L0 62.3806L0 0Z" transform="translate(7.3151874E-05 0.5173957)" id="Clip-6" fill="none" fill-rule="evenodd" stroke="none" />
          <g clip-path="url(#mask_1)">
            <path d="M22.1558 11.9264C24.4107 12.2794 26.7107 12.5658 28.9337 12.8427L30.9136 13.0905C32.0955 13.2407 33.3507 13.3365 34.7513 13.3825C40.0085 13.5543 45.1802 13.2896 50.1332 12.5902C53.2818 12.1442 56.9102 10.8516 60.9281 8.74306C61.1366 12.0241 60.9507 15.2112 60.7047 18.71C60.6719 19.1738 60.6465 19.6376 60.6221 20.1022C60.5695 21.0617 60.516 22.054 60.3949 23.0124C60.3555 23.3269 60.0898 23.7522 59.8382 23.9033C53.8366 27.5205 46.0035 29.2778 36.5097 29.1464C29.0896 29.0375 21.9324 27.6744 16.3551 25.3096L15.9392 25.135C13.933 24.2958 11.6593 23.3448 11.4744 21.0279C11.3937 20.0234 11.358 18.9936 11.3242 17.9984C11.2998 17.2671 11.2744 16.5368 11.2322 15.8073L11.1317 14.111C11.0163 12.1809 10.897 10.1963 10.8323 8.21829C12.631 9.68465 14.7723 10.2892 16.8348 10.7764L17.7219 10.9877C19.1658 11.3341 20.6603 11.6918 22.1558 11.9264M57.4115 8.91298C54.9397 10.0264 52.129 10.4544 49.4094 10.8694L48.6499 10.9858C46.4109 11.3322 44.0884 11.52 41.7461 11.5434C39.0988 11.5697 36.3529 11.5153 33.3526 11.3716C32.3227 11.3219 31.2685 11.1632 30.248 11.0093C29.8115 10.9436 29.3759 10.8778 28.9394 10.8196C28.2203 10.7239 27.4993 10.6394 26.7783 10.5549C25.1242 10.3615 23.4137 10.1616 21.7737 9.81984L20.6209 9.58514C18.3875 9.13453 16.0781 8.6689 13.9593 7.72543C13.4026 7.47759 12.0987 6.89743 11.8818 6.27314C11.8368 6.14265 11.849 6.02343 11.9222 5.88449C12.1832 5.38882 14.1311 4.78143 14.8643 4.55237C15.0558 4.49229 15.2201 4.44065 15.344 4.39935C17.8956 3.53473 20.6725 3.02029 23.8353 2.82784C24.8369 2.76682 25.8255 2.6429 26.7821 2.52274C28.0607 2.36314 29.3834 2.19698 30.7315 2.18571C31.583 2.1782 32.4607 2.17351 33.3601 2.17351C37.8089 2.17351 42.776 2.29274 47.6961 2.82878C52.0483 3.30192 55.7865 4.1731 59.1248 5.4902C59.6401 5.69392 60.256 6.02718 60.2663 6.46278C60.2832 7.21192 58.8084 8.284 57.4115 8.91298M70.4558 31.2605C70.3779 33.0893 70.3206 34.9199 70.2737 36.7495C70.2389 38.1004 70.1854 39.7959 70.13 41.5551C70.0484 44.1199 69.962 46.8207 69.9254 48.7856C69.8268 53.9761 64.1256 55.6781 59.5444 57.0459L59.0515 57.1933C56.469 57.9678 53.877 58.5967 51.3498 59.0605C49.445 59.4116 47.4492 59.5411 45.52 59.6679L43.9879 59.7711C41.8701 59.9185 39.6808 60.0715 37.5479 59.9993C34.9034 59.912 32.2101 59.5937 29.6059 59.2858L29.1008 59.2257C26.906 58.9666 24.5149 58.6155 21.5775 58.1217C19.9375 57.8448 18.6175 57.5425 17.4253 57.1707L17.3079 57.1341C14.7629 56.3418 12.1297 55.5222 9.64096 54.4999C7.8019 53.7451 5.86802 52.888 4.22517 51.4545C2.72407 50.144 2.54288 49.3122 2.4077 47.2667C2.17113 43.6824 2.13921 39.1876 2.10729 34.8401C2.09227 32.7785 2.07819 30.7977 2.04158 29.0507C2.03688 28.862 2.05941 28.5353 2.08382 28.1532C2.12043 27.5871 2.14578 27.1102 2.15235 26.7112C6.8866 31.3356 14.3696 32.7936 20.466 33.9811L21.9605 34.274C22.3698 34.3557 22.7782 34.442 23.1866 34.5284C24.3272 34.7697 25.5072 35.0203 26.6901 35.1518C32.3499 35.7789 38.7655 36.4914 45.0732 35.4324C45.8467 35.3029 46.6475 35.2034 47.453 35.1039C48.9071 34.9236 50.412 34.7378 51.8079 34.3632L53.6789 33.8656C56.6304 33.0818 59.6824 32.2716 62.633 31.3103C64.564 30.6813 66.419 29.7829 68.214 28.9145L69.0533 28.509C69.5508 28.2705 69.9761 27.9457 70.4445 27.5702C70.406 28.2161 70.4088 29.1107 70.4436 30.3556C70.4539 30.7705 70.4633 31.1 70.4558 31.2605M71.2847 23.0115C70.9984 24.4103 69.2157 25.7246 68.4628 26.224C66.3468 27.6284 63.8815 28.5766 61.7364 29.3548C52.8537 32.5758 42.8952 34.1247 33.7008 33.7089C28.0184 33.4544 22.3614 32.5673 16.8874 31.0728C12.1015 29.766 7.58035 28.5315 3.70696 25.0806C2.98035 24.4338 2.29505 23.8226 2.22182 22.8632C2.15611 21.9882 2.34574 21.3771 2.85737 20.8223C5.11231 18.3711 7.06496 17.0043 9.10492 16.4645C9.11337 17.2268 9.22696 18.5636 9.48137 20.934L9.53488 21.47C9.68509 23.0275 9.80431 24.2573 11.5326 25.1989L12.201 25.5669C13.1811 26.1085 14.194 26.669 15.2586 27.0858C19.6295 28.7981 24.5957 29.9406 30.4395 30.579C35.185 31.0962 40.4028 30.9761 45.9519 30.2194C51.1677 29.5088 55.9038 28.1785 60.0279 26.2672C61.7683 25.4598 62.1673 24.4131 62.325 22.6426C62.4987 20.7012 62.5626 18.7269 62.6226 16.8128C64.9715 17.53 66.757 18.3768 68.2074 19.4564L68.6139 19.753C69.7019 20.5407 71.5222 21.8578 71.2847 23.0115M71.2087 19.7249C69.7207 18.297 67.8957 17.331 66.1299 16.3969L65.8999 16.2749C65.8746 16.2617 63.9717 15.2657 62.8658 14.9925C62.7897 13.8697 62.8217 12.5939 62.8536 11.3576C62.8827 10.1803 62.9127 8.96367 62.8489 7.89535C62.6968 5.40102 62.1777 4.13555 59.5078 3.22682C53.3053 1.11927 46.9423 0.131674 38.8773 0.0237145C32.9639 -0.0551426 26.6309 0.0115104 20.3533 1.03384C17.5464 1.49102 14.0523 2.06086 11.4669 3.66992C9.27953 5.03114 9.31333 8.46143 9.33492 10.7304L9.34056 11.4158C9.35464 13.0633 9.2786 14.1823 8.12578 14.6921C5.65117 15.7876 3.76329 17.0409 2.35419 18.5232C0.0851677 20.9105 0.0635758 23.4462 0.0391677 26.3827L0.0325962 27.0999C0.00537175 29.1051 -0.0199752 31.4351 0.0232085 33.7192C0.0570044 35.5066 0.151821 37.3213 0.241943 39.0749C0.302025 40.2296 0.361168 41.3833 0.40529 42.538C0.420311 42.938 0.426882 43.3886 0.434392 43.872C0.473821 46.5663 0.52827 50.2567 2.12888 52.106C3.99892 54.2652 6.60027 56.0329 9.45415 57.0853C12.3475 58.1536 15.2933 58.9976 18.8269 59.9373C20.7486 60.4489 22.8655 60.8601 25.1176 61.1615C28.0184 61.5492 30.9906 61.8487 33.9524 62.0533L35.217 62.1444C36.8035 62.2617 38.4257 62.3809 40.0423 62.3809C40.8111 62.3809 41.579 62.3537 42.3404 62.2861C43.1224 62.2167 43.9072 62.1566 44.692 62.0965C47.8181 61.8571 51.0504 61.6083 54.1643 60.7672C54.9679 60.5494 55.7808 60.3569 56.5938 60.1654C57.8443 59.8697 59.137 59.5637 60.3855 59.1666C62.2208 58.5836 64.3697 57.8391 66.3871 56.7351C68.167 55.7616 70.1141 54.5131 71.066 52.6308C71.9165 50.9485 71.848 47.9754 71.7926 45.5872C71.7719 44.6728 71.7522 43.8091 71.787 43.1604C71.9419 40.316 72.0958 37.4696 72.216 34.6232C72.3155 32.2641 72.4713 29.7003 72.707 26.5554L72.7145 26.4409C72.8788 24.2507 73.0844 21.5245 71.2087 19.7249" transform="translate(7.3151874E-05 0.5173957)" id="Fill-5" fill="#1D1D1B" fill-rule="evenodd" stroke="none" />
          </g>
        </g>
        <path d="M4.68908 2.45455C3.27247 2.77842 3.6921 1.36275 2.89039 1.10646C1.62961 2.78499 3.77002 4.17157 3.40953 6.17867C2.19945 7.87973 -0.705125 6.05757 0.15761 4.23165C1.5301 4.07581 0.96308 5.74589 2.32149 5.59569C2.7139 4.0223 1.09357 2.80377 1.61553 0.515974C2.94202 -0.894067 5.96488 0.86426 4.68908 2.45455" transform="translate(53.86357 68.242386)" id="Fill-8" fill="#BD1735" fill-rule="evenodd" stroke="none" />
        <path d="M1.16954 0C1.36105 0.527592 1.33946 0.977265 1.1104 1.49922C0.648523 1.51706 0.208237 1.50767 0.000767812 1.28612C-0.0198852 0.417755 0.376278 0 1.16954 0" transform="translate(41.09939 69.409775)" id="Fill-10" fill="#BD1735" fill-rule="evenodd" stroke="none" />
        <path d="M5.02902 4.80048C3.50445 4.51791 2.9731 3.28154 1.97049 2.48827C1.31992 3.46084 2.33098 5.02391 1.10963 5.28582C-0.263796 4.66342 0.428082 2.69856 0 0.943987C1.43914 0.193905 2.81633 1.77105 3.63118 2.70795C4.44135 1.92219 3.31763 0.986232 4.11559 0.0972116C6.69159 -0.687605 5.54722 3.4984 5.02902 4.80048" transform="translate(46.02535 69.72675)" id="Fill-12" fill="#BD1735" fill-rule="evenodd" stroke="none" />
        <path d="M0.943661 1.48541C1.24313 1.76329 1.6468 2.41856 2.22697 1.89002C2.34338 1.21974 1.12015 0.791657 0.943661 1.48541M4.49599 5.1288C3.51121 5.46394 2.53301 4.38717 1.56607 4.129C1.27505 4.28296 0.851661 5.29215 0.608518 4.85843C-0.814666 3.88023 0.808477 1.63186 0.0574569 0.525984C0.742763 -0.451282 2.61468 0.110106 3.20423 0.783208C4.1815 2.10313 2.12276 2.55092 2.17064 3.00717C2.31146 4.28202 4.38333 3.23998 4.49599 5.1288" transform="translate(34.730934 70.22361)" id="Fill-14" fill="#BD1735" fill-rule="evenodd" stroke="none" />
        <path d="M1.36363 0C1.69784 1.12747 1.01816 2.72714 1.174 4.31086C2.10526 4.38784 2.23012 3.61522 3.24118 3.79171C3.48151 4.03486 3.38481 4.60845 3.36886 5.11069C2.55775 5.4618 1.03506 5.68522 0.197672 5.40922C0.119754 4.4038 -0.616246 0.00469388 1.36363 0" transform="translate(21.940437 69.40151)" id="Fill-16" fill="#BD1735" fill-rule="evenodd" stroke="none" />
        <path d="M4.13273 1.43711C3.1273 2.15058 2.45045 1.07756 1.51355 1.9478C1.53326 2.58617 1.30608 3.46392 1.61118 3.82629C2.76212 4.4318 3.49155 3.36348 4.61057 3.32874C4.06983 7.46968 -2.18804 3.96429 0.808528 0.988373C1.79424 0.667312 4.48759 -1.30975 4.13273 1.43711" transform="translate(15.004113 68.65656)" id="Fill-18" fill="#BD1735" fill-rule="evenodd" stroke="none" />
        <path d="M0.00651202 0C0.133247 0.0075102 0.256226 0.0075102 0.378267 0.00469388C1.35365 0.490041 1.81741 2.32629 1.33019 3.59927C0.0881855 3.21812 -0.0347941 1.03453 0.00651202 0" transform="translate(41.21268 72.19859)" id="Fill-20" fill="#BD1735" fill-rule="evenodd" stroke="none" />
        <path d="M2.6098 0.186917C2.87547 1.79222 5.62045 4.06782 3.87339 5.27508C3.07543 5.08169 3.32233 3.89039 3.03224 3.19757C2.66424 3.18443 2.29718 3.17973 1.92073 3.17504C1.30396 3.35153 1.46449 4.38231 1.10776 4.84043C0.530408 4.96341 0.440286 4.63859 0 4.63108C0.440286 2.25598 0.0985714 -0.78847 2.6098 0.186917" transform="translate(27.73368 70.28358)" id="Fill-22" fill="#BD1735" fill-rule="evenodd" stroke="none" />
      </g>
    </g>
  </g>
</svg>