<?xml version="1.0" encoding="utf-8"?>
<svg width="140px" height="140px" viewbox="0 0 140 140" version="1.1" xmlns:xlink="http://www.w3.org/1999/xlink" xmlns="http://www.w3.org/2000/svg">
  <defs>
    <path d="M0 0L131.499 0L131.499 69.756L0 69.756L0 0Z" transform="translate(0 0.24367088)" id="path_1" />
    <clipPath id="mask_1">
      <use xlink:href="#path_1" />
    </clipPath>
  </defs>
  <g id="PICTO-1">
    <g id="Group-6" transform="translate(4 35)">
      <path d="M21.5258 6.90434C22.0172 5.2815 22.6035 2.20529 20.5706 0.528109C19.5638 -0.302652 17.9167 -0.0134517 16.6794 0.444296C13.5821 1.59097 11.3771 4.20943 11.1119 7.05631C10.1664 4.24535 6.99818 0.653368 3.09996 0.611001C-0.0283691 0.576923 -0.16851 4.83665 0.0833887 6.68053C0.858598 12.3494 11.1004 19.8051 11.2893 19.9985C11.4153 20.1256 19.9452 12.1256 21.5258 6.90434" transform="translate(54 23)" id="Fill-1" fill="#BD1735" fill-rule="evenodd" stroke="none" />
      <g id="Group-5">
        <path d="M0 0L131.499 0L131.499 69.756L0 69.756L0 0Z" transform="translate(0 0.24367088)" id="Clip-4" fill="none" fill-rule="evenodd" stroke="none" />
        <g clip-path="url(#mask_1)">
          <path d="M81.8339 3.31457C82.0714 2.94507 82.3265 2.58001 82.6605 2.29735C83.3515 1.71077 84.3171 1.54064 85.2137 1.639C86.1332 1.74001 86.9846 2.0271 87.8058 2.40102C89.4217 3.13647 88.1133 2.26988 92.5773 4.83596C88.7272 3.41381 85.4334 2.89014 81.8339 3.31457M69.5349 23.7253C72.6055 22.9793 74.8202 20.4619 76.22 18.6322C77.3601 17.1409 79.3897 15.4662 81.6683 15.2376C83.0848 15.0923 84.3933 15.5398 85.5583 16.5587C87.486 18.2414 89.2818 20.9165 90.3634 23.7147C91.9767 27.8908 93.4677 32.9166 90.6558 34.7268C88.9513 35.8238 85.4352 36.9855 83.6208 37.4604C83.1159 37.5924 82.4594 37.759 81.709 37.9504C78.44 38.7833 73.4993 40.0415 71.3714 40.8523C69.3763 41.6117 67.5673 42.9691 66.1401 44.7794C65.9948 44.9637 65.8681 45.1861 65.7512 45.4227C65.6343 45.1861 65.5076 44.9637 65.3623 44.7785C63.9333 42.9691 62.1243 41.6108 60.1301 40.8523C58.0031 40.0424 53.0641 38.7842 49.796 37.9513C49.0448 37.7599 48.3875 37.5924 47.8816 37.4604C46.0655 36.9855 42.5502 35.8238 40.8457 34.7268C38.033 32.9166 39.5248 27.8908 41.1381 23.7147C42.2198 20.9174 44.0155 18.2414 45.9432 16.5587C47.1091 15.5398 48.4211 15.0958 49.8324 15.2376C52.1109 15.4653 54.1414 17.1409 55.2825 18.6322C56.6813 20.4619 58.8961 22.9793 61.9666 23.7253C63.1121 24.0027 64.4596 23.7377 65.4004 23.0484C65.5315 22.9527 65.6405 22.8437 65.7512 22.7347C65.8619 22.8437 65.9709 22.9527 66.102 23.0484C67.0429 23.7368 68.3903 24.0036 69.5349 23.7253M38.9242 4.83596C43.3892 2.26988 42.0798 3.13647 43.6957 2.40102C44.5169 2.0271 45.3692 1.74001 46.2879 1.639C47.1853 1.54064 48.1509 1.71077 48.8419 2.29735C49.1759 2.58001 49.431 2.94507 49.6676 3.31457C46.0681 2.89014 42.7743 3.41381 38.9242 4.83596M128.482 59.2712C127.698 57.2908 127.084 55.648 126.525 54.1549C125.105 50.359 124.079 47.6148 121.642 42.8708C119.182 38.0798 115.686 31.4865 113.422 27.5576C111.013 23.3762 108.932 19.7637 106.573 15.4325C105.392 13.2643 103.222 10.381 101.033 8.82507C100.523 8.46267 100.036 8.08343 99.5538 7.70153L99.1995 7.41976C98.4137 6.79596 97.6022 6.1509 96.7198 5.57317C94.8417 4.34064 92.844 3.19672 90.9428 2.26457C90.6753 2.13343 90.3971 1.99166 90.1101 1.84545C88.3905 0.969124 86.2475 -0.127838 84.2631 0.0121623C82.827 0.108745 81.8827 0.968238 81.0481 1.72672C80.4599 2.26191 79.9044 2.76609 79.2205 3.00267C78.4737 3.26052 74.6244 4.95026 72.8836 6.30862C71.3244 7.52697 69.9194 9.12014 68.4639 11.322C67.3166 13.0579 66.5627 14.5784 66.3395 16.7962C66.2898 17.2924 66.0356 17.8055 65.7512 18.3433C65.4668 17.8055 65.2117 17.2924 65.1621 16.7962C64.9397 14.5775 64.184 13.0561 63.0377 11.322C61.583 9.12102 60.1789 7.52786 58.617 6.30862C56.8762 4.94938 53.0269 3.26052 52.2819 3.00267C51.5971 2.76609 51.0416 2.26191 50.4534 1.72672C49.6197 0.968238 48.6745 0.108745 47.2384 0.0121623C45.2575 -0.119863 43.1119 0.968238 41.3932 1.84457C41.1053 1.99077 40.8262 2.13343 40.5587 2.26457C38.6558 3.19761 36.6589 4.34153 34.7817 5.57317C33.8967 6.15355 33.0825 6.80039 32.295 7.42685L31.9477 7.70153C31.4666 8.08343 30.9794 8.46267 30.4691 8.82507C28.2809 10.381 26.1105 13.2643 24.9295 15.4325C22.5633 19.7752 20.4858 23.3815 18.0797 27.5576C15.8171 31.4838 12.3213 38.0771 9.8594 42.8708C7.42227 47.6166 6.39551 50.3608 4.9754 54.1585C4.41728 55.6489 3.80246 57.2925 3.01932 59.2712C2.30705 61.0717 -0.0397166 68.4571 0.0010351 68.9117C0.0276123 69.1961 0.256176 69.4176 0.539666 69.4344C0.566243 69.4362 0.584847 69.4433 0.666351 69.4832C0.785062 69.539 0.964901 69.6241 1.21827 69.64C1.72412 69.671 1.72767 69.6648 5.28458 59.436C6.63293 55.5585 7.90686 51.8963 8.17706 51.2291C10.4025 45.739 16.7075 34.3122 18.0762 32.0004C19.2084 30.0891 20.244 28.0884 21.2451 26.1532C22.6634 23.4125 24.1305 20.578 25.8784 17.9898C26.1937 17.5228 26.5118 17.0337 26.8342 16.5384C27.7157 15.1836 28.6264 13.7818 29.5983 12.6591C31.782 10.1338 36.0592 7.40115 39.5461 6.30419C44.2795 4.81381 50.9397 3.59811 55.7865 6.27318C57.1996 7.05292 58.5098 8.23938 59.9104 10.0062L60.1177 10.2667C61.4581 11.9503 63.4115 14.4038 63.3141 16.5508C63.0465 16.3168 62.7994 16.0103 62.569 15.7249L62.5017 15.6417C61.0851 13.8934 59.6898 12.2214 58.3539 10.6717L58.1138 10.3917C57.2713 9.40634 56.4014 8.38912 55.1133 7.79191C53.0544 6.83672 50.332 6.70912 47.9303 6.59659C47.4865 6.57533 47.0568 6.55583 46.6502 6.53014C44.2272 6.3795 41.4508 7.17343 38.3803 8.88001C37.9417 9.12368 37.5023 9.3328 37.0647 9.54014C36.2975 9.9052 35.5037 10.2827 34.7321 10.8365C34.1235 11.2724 33.9162 11.8475 34.1917 12.3384C34.236 12.419 34.3007 12.4881 34.3777 12.5386C35.4116 13.2165 36.6377 12.4668 37.1621 12.1479C38.5486 11.3017 39.9882 10.5086 41.4428 9.79001L41.9593 9.52773C42.8293 9.08204 43.7285 8.62039 44.5958 8.55659C47.0657 8.37406 53.0987 8.19064 55.806 10.4165C56.7832 11.2201 57.5885 12.3685 58.3672 13.4796C58.8084 14.1087 59.2646 14.7591 59.7501 15.343C60.217 15.9057 60.6847 16.44 61.1454 16.9663C62.3591 18.3513 63.5054 19.66 64.4587 21.2913C64.4649 21.3001 64.4702 21.309 64.4755 21.3179C64.4613 21.3312 64.4436 21.3471 64.4206 21.3657C63.6091 22.0249 62.6284 22.0489 61.3332 21.4419C59.6854 20.6693 58.2972 19.5315 56.9621 17.8622C55.589 16.1441 54.1866 14.5394 52.1375 13.7968C49.3983 12.8036 46.4429 13.3547 44.2326 15.2695C41.2674 17.84 39.7534 21.2381 38.3395 24.7868C36.9655 28.2363 35.7039 34.6799 39.6923 36.9536C42.4333 38.5157 45.6544 39.1342 48.7693 39.7332C49.5622 39.8847 50.3453 40.0353 51.1081 40.1992C52.7869 40.5617 54.5002 41.0215 56.2003 41.5682L56.9905 41.8181C58.9714 42.4393 60.8424 43.0258 62.5106 44.362C64.0893 45.6274 65.1523 47.6786 63.9679 49.4082C63.8323 49.6049 63.7712 49.6953 62.8818 49.1105C62.6948 48.9865 62.5079 48.8642 62.3254 48.7641C58.3273 46.5737 54.3771 44.6544 49.9599 45.1613C47.7275 45.4191 45.4347 46.7314 43.4104 47.8895C42.7602 48.2617 42.1285 48.6223 41.527 48.9333C38.7639 50.3608 36.0424 51.7032 33.1162 52.4537C32.2347 52.6796 31.1814 52.6956 30.1502 52.5033C29.5265 52.3855 28.4005 52.2747 27.2081 52.1586C25.7074 52.0115 24.0064 51.8458 23.2711 51.6544C23.2171 51.6403 23.132 51.6128 23.0248 51.5782C21.9281 51.2265 20.8057 50.9225 20.1713 51.3895C19.9118 51.58 19.7709 51.8742 19.7736 52.2162C19.778 52.871 20.3671 53.2919 20.9908 53.7385C21.3762 54.0158 21.9059 54.3942 21.9697 54.6724C22.1505 55.4477 21.5179 57.0719 21.0989 58.1467C20.9385 58.5579 20.7941 58.9309 20.6976 59.2295C20.531 59.747 20.3583 60.2636 20.1864 60.781C19.2943 63.4587 18.3721 66.2268 18.1665 69.1394C18.155 69.3077 18.2162 69.4717 18.3357 69.5895C18.4438 69.6967 18.59 69.7561 18.7406 69.7561C18.7566 69.7561 18.7716 69.7552 18.7876 69.7534C19.0648 69.7313 19.2615 69.6329 19.4334 69.5346C19.5813 69.5904 19.7488 69.5815 19.8932 69.5098C20.0544 69.4291 20.1687 69.2776 20.2015 69.1004C20.9456 65.106 22.0504 61.1594 23.4846 57.3705L23.6671 56.8805C24.3519 55.0242 24.6957 54.2772 26.2247 54.4403C27.9283 54.6201 32.365 54.816 34.4566 54.2134C37.5528 53.322 40.44 51.8485 43.2324 50.4237C43.8729 50.0967 44.5134 49.7698 45.1557 49.4499C47.5556 48.2555 50.7431 46.9574 54.1848 47.5679C55.7033 47.8363 57.2731 48.1137 58.6356 48.7641C58.9351 48.9058 59.3691 49.1912 59.828 49.4933C61.3075 50.4636 63.1484 51.6695 64.6438 51.1893C65.0939 51.0448 65.4589 50.7498 65.7512 50.3351C66.0436 50.7498 66.4086 51.0448 66.8577 51.1893C68.3513 51.6686 70.194 50.4644 71.6726 49.4933C72.1333 49.1912 72.5665 48.9067 72.8659 48.7641C74.2276 48.1137 75.7983 47.8363 77.3911 47.5546C80.7549 46.9644 83.946 48.2555 86.3459 49.4499C86.989 49.7706 87.6304 50.0976 88.2727 50.4255C91.0633 51.8494 93.9496 53.3229 97.045 54.2134C99.1384 54.8151 103.573 54.6201 105.276 54.4403C106.817 54.2737 107.15 55.0251 107.835 56.8805L108.018 57.3705C109.451 61.1594 110.556 65.106 111.301 69.1004C111.334 69.2776 111.454 69.4265 111.615 69.5071C111.755 69.5771 111.92 69.586 112.068 69.5328C112.193 69.6063 112.402 69.7286 112.714 69.7534C112.73 69.7552 112.746 69.7561 112.761 69.7561C112.912 69.7561 113.058 69.6967 113.166 69.5895C113.285 69.4717 113.347 69.3077 113.336 69.1394C113.129 66.2277 112.207 63.4596 111.316 60.7828C111.143 60.2644 110.971 59.747 110.803 59.2295C110.707 58.9309 110.563 58.557 110.402 58.1449C109.984 57.0701 109.352 55.4468 109.532 54.6724C109.596 54.3942 110.125 54.0158 110.512 53.7385C111.134 53.2919 111.724 52.871 111.729 52.2162C111.732 51.8742 111.59 51.58 111.331 51.3895C110.696 50.9199 109.573 51.2256 108.476 51.5782C108.369 51.6128 108.284 51.6403 108.231 51.6544C107.496 51.8458 105.794 52.0115 104.294 52.1586C103.102 52.2747 101.975 52.3855 101.352 52.5033C100.322 52.6965 99.2677 52.6796 98.3853 52.4537C95.461 51.7041 92.7386 50.3608 89.9745 48.9333C89.373 48.6223 88.7422 48.2617 88.0911 47.8895C86.0677 46.7314 83.7732 45.4191 81.5416 45.1613C77.1324 44.6544 73.1751 46.5746 69.1761 48.7641C68.9936 48.8642 68.8067 48.9865 68.6198 49.1105C67.7321 49.6936 67.6701 49.6058 67.5337 49.4082C66.3492 47.6786 67.4123 45.6274 68.9919 44.362C70.66 43.0258 72.5311 42.4384 74.5128 41.8172L75.3022 41.5682C77.0013 41.0215 78.7147 40.5617 80.3935 40.1992C81.1562 40.0353 81.9403 39.8847 82.7331 39.7332C85.8471 39.1342 89.0683 38.5157 91.8101 36.9536C95.7976 34.679 94.537 28.2355 93.162 24.7868C91.7481 21.239 90.2341 17.84 87.2699 15.2695C85.0595 13.3547 82.1059 12.8036 79.3632 13.7968C77.3141 14.5394 75.9117 16.1441 74.5394 17.8622C73.2043 19.5324 71.8152 20.6693 70.1692 21.4419C68.8723 22.0489 67.8924 22.0249 67.0818 21.3657C67.0588 21.348 67.0411 21.3312 67.0269 21.3187C67.0331 21.3081 67.0384 21.2984 67.0429 21.2913C67.997 19.6609 69.1425 18.3522 70.3553 16.9672C70.8159 16.4409 71.2846 15.9066 71.7515 15.343C72.2369 14.7591 72.6932 14.1087 73.1344 13.4787C73.9139 12.3685 74.7192 11.2201 75.6955 10.4165C78.4028 8.19064 84.435 8.37318 86.9058 8.55659C87.7731 8.62039 88.6723 9.08204 89.5413 9.52773L90.0587 9.79001C91.5151 10.5095 92.9556 11.3025 94.3394 12.1479C94.8639 12.4668 96.0926 13.2165 97.1238 12.5386C97.2009 12.4881 97.2647 12.419 97.3098 12.3393C97.5854 11.8484 97.3789 11.2733 96.7703 10.8374C95.9987 10.2827 95.2049 9.9052 94.4369 9.54014C93.9992 9.3328 93.5598 9.12368 93.1213 8.88001C90.0498 7.17343 87.2743 6.38659 84.8513 6.53014C84.4447 6.55583 84.0159 6.57533 83.5721 6.59659C81.1695 6.70912 78.4471 6.83672 76.3883 7.79191C75.1011 8.38824 74.2311 9.40634 73.3895 10.3899L73.1476 10.6717C71.8011 12.2347 70.4439 13.8606 68.9998 15.6417L68.9316 15.7258C68.7022 16.0103 68.4541 16.3168 68.1875 16.5508C68.09 14.4038 70.0434 11.9494 71.3847 10.2658L71.5902 10.0062C72.9926 8.23938 74.3029 7.05292 75.7159 6.27318C80.5609 3.59811 87.2212 4.81292 91.9554 6.30419C95.4424 7.40115 99.7186 10.1338 101.904 12.6591C102.875 13.7818 103.787 15.1836 104.667 16.5384C104.991 17.0337 105.308 17.5228 105.623 17.9898C107.372 20.578 108.838 23.4134 110.258 26.1549C111.259 28.0893 112.294 30.09 113.424 32.0013C114.744 34.2298 121.135 45.8249 123.324 51.2291C123.596 51.8972 124.871 55.5665 126.221 59.451C129.777 69.6737 129.77 69.6746 130.284 69.64C130.538 69.6241 130.716 69.539 130.835 69.4832C130.917 69.4433 130.936 69.4362 130.962 69.4344C131.244 69.4176 131.473 69.197 131.501 68.9134C131.541 68.4598 129.195 61.0743 128.482 59.2712" transform="translate(-0.0010351001 0.24355924)" id="Fill-3" fill="#1D1D1B" fill-rule="evenodd" stroke="none" />
        </g>
      </g>
    </g>
  </g>
</svg>